<svg height="512pt" preserveAspectRatio="xMidYMid meet" viewBox="0 0 512 512" width="512pt" xmlns="http://www.w3.org/2000/svg"><g transform="matrix(.1 0 0 -.1 0 512)"><path d="m2635 4828c3-7 56-213 119-457s116-444 118-445c3-3 1767-1004 1838-1044l45-25-30 30c-16 17-145 137-285 269-140 131-315 294-388 362l-133 125-20-21c-44-48-122-37-236 34-92 57-169 141-240 262-31 53-70 117-87 142-29 43-30 44-37 19-3-14-10-60-14-102-3-42-8-77-11-77s-113 68-123 76c-7 6 32 324 39 324 4 0 19-9 34-21 14-11 26-18 26-15 0 6-607 576-614 576-3 0-3-6-1-12z"/><path d="m1375 3719c-594-567-1087-1037-1095-1044-12-13 101-15 902-15h916l32 68c248 527 543 1170 543 1182-2 20-202 800-211 822-5 12-248-214-1087-1013zm725 123c37-27 64-89 68-157 5-75-9-128-49-188-31-47-144-141-159-132-4 3-11 26-15 51-3 26-9 52-11 59-3 6 14 24 36 39 97 64 97 196 0 196-50 0-122-47-144-95-14-28-17-51-13-87l6-48-52-26c-28-15-52-23-54-18-16 48-41 79-65 82-35 4-101-30-127-67-39-54-20-141 31-141 10 0 34 6 53 14 39 17 40 15 51-63l6-49-58-22c-148-55-243 20-232 184 8 114 70 206 175 257 50 24 123 29 146 10 12-10 17-6 26 21 29 81 118 163 212 193 55 18 135 12 169-13z"/><path d="m3387 4129c12-13 58-82 103-154 45-71 96-145 113-164 76-80 187-121 187-68 0 16-52 70-187 197-103 96-199 184-213 194l-25 20z"/><path d="m2532 3149-273-590 152-327c83-180 203-437 266-572s117-253 120-263c3-9 9-17 14-17 13 0 2039 1173 2039 1180s-2016 1174-2033 1177c-7 2-130-253-285-588zm838-154v-55h-115-115v-59-59l37 19c78 40 173 15 208-56 18-35 20-60 20-205 0-148-2-169-21-205-52-100-242-128-355-52-47 31-68 80-76 176l-6 81h97 96l1-62c2-89 11-122 33-126 38-8 46 23 46 169 0 155-8 192-43 187-15-2-25-13-32-35l-9-33h-95-94l6 83c4 45 7 128 7 185v102h205 205z"/><path d="m320 2406c30-29 485-466 1010-971s994-956 1041-1002l86-85 107 426c58 234 106 433 106 441 0 9-128 291-285 628l-284 612-918 3-918 2zm1222-400c41-18 69-42 127-110 128-152 324-307 495-393 39-19 72-36 73-37 6-5-21-136-29-136-15 0-110 51-183 98-125 80-265 203-381 335l-61 68-28-158c-16-87-32-162-36-167-9-10-129 35-136 51-3 7 13 114 36 237s41 227 41 230c0 12 31 5 82-18z"/><path d="m3804 1723-941-535-113-449c-62-247-111-451-109-453 4-4 602 553 607 566 2 4-3 5-11 2s-31 1-50 10c-47 19-65 75-49 153 29 141 219 316 343 317 43 0 48 3 65 34 41 77 176 172 244 172 36 0 68-30 77-70 3-17 7-30 10-30 2 0 183 167 401 371 433 405 479 449 472 449-3-1-428-242-946-537z"/><path d="m3675 1392c-52-32-95-89-95-126 0-21 6-36 15-40 58-22 184 111 155 164-13 25-36 25-75 2z"/><path d="m3352 1175c-66-45-105-101-100-147 5-49 44-51 112-4 69 48 99 90 100 141 1 37-1 40-29 43-21 2-46-8-83-33z"/></g></svg>