<svg height="512pt" preserveAspectRatio="xMidYMid meet" viewBox="0 0 512 512" width="512pt" xmlns="http://www.w3.org/2000/svg"><g transform="matrix(.1 0 0 -.1 0 512)"><path d="m1515 3874c-517-537-991-1029-1052-1094l-113-118 425-106c234-58 432-106 440-106 15 0 1221 555 1238 570 4 3 6 416 5 918l-3 912zm285-174c118-22 218-40 223-40 13 0 7-28-17-82-18-41-42-69-110-127-152-128-307-324-393-495-19-39-36-72-37-73-5-6-136 21-136 29 0 15 51 110 98 183 80 125 203 265 335 381l68 61-158 28c-87 16-162 32-167 36s-1 26 9 51c9 24 21 53 26 66 5 12 16 22 26 22s115-18 233-40z"/><path d="m2660 3938v-916l68-32c527-248 1170-543 1182-543 20 2 800 202 822 211 12 5-214 248-1013 1087-567 594-1037 1087-1044 1095-13 12-15-101-15-902zm828-217c55-28 115-90 143-148 24-50 29-123 11-146-10-12-4-17 33-31 58-23 126-91 162-164s39-165 7-209c-29-40-89-67-159-71-75-5-128 9-188 49-47 31-141 144-132 159 3 4 26 11 51 15 26 3 52 9 59 11 6 3 24-14 39-36 64-97 196-97 196 0 0 50-47 122-95 144-28 14-51 17-87 13l-48-6-26 52c-15 28-23 52-18 54 48 16 79 41 82 65 4 35-30 101-67 127-54 39-141 20-141-31 0-10 6-34 14-53 17-39 15-40-63-51l-49-6-22 58c-38 102-16 178 63 215 57 27 173 22 235-10z"/><path d="m2220 2704c-184-86-441-206-570-266s-243-112-252-115c-10-3-18-9-18-14 0-13 1173-2039 1180-2039s1174 2016 1177 2033c2 9-1081 520-1167 551-8 3-166-64-350-150zm400-844v-380h-95-95v260c0 247-1 261-20 280-15 15-33 20-70 20h-50v45c0 33 4 45 15 45 33 0 125 43 161 75 35 30 45 34 97 35h57z"/><path d="m4381 2369c-249-65-454-119-455-121-3-3-1004-1767-1044-1838l-25-45 30 30c17 17 137 145 269 285 131 140 294 315 362 388l125 133-21 20c-48 44-37 122 34 236 57 92 141 169 262 240 53 31 117 70 142 87 43 29 44 30 19 37-14 3-60 10-102 14-42 3-77 8-77 11s68 113 76 123c6 7 324-32 324-39 0-4-9-19-21-34-11-14-18-26-15-26 7 0 579 611 575 614-2 1-208-50-458-115z"/><path d="m331 2423c31-32 159-168 285-303s232-247 236-248c5-2 5 3 2 11s1 31 10 50c19 47 75 65 153 49 141-29 316-219 317-343 0-43 3-48 34-65 77-41 172-176 172-244 0-36-30-68-70-77-17-3-30-7-30-10 0-5 720-776 783-838 28-28 36-32 26-15-8 14-250 439-538 946l-523 921-443 111c-244 62-449 112-456 112s12-26 42-57z"/><path d="m997 1863c-16-16-4-62 28-108 47-68 89-98 140-99 37-1 40 1 43 27 4 37-49 120-101 158-38 27-94 39-110 22z"/><path d="m4125 1731c-11-11-78-56-150-101-71-45-145-96-164-113-80-76-121-187-68-187 16 0 70 52 197 187 167 179 216 233 208 233-2 0-12-9-23-19z"/><path d="m1226 1524c-22-58 111-182 165-154 36 20 16 74-50 133-45 41-103 51-115 21z"/></g></svg>