<svg height="512pt" preserveAspectRatio="xMidYMid meet" viewBox="0 0 512 512" width="512pt" xmlns="http://www.w3.org/2000/svg"><g transform="matrix(.1 0 0 -.1 0 512)"><path d="m2175 4557c-165-155-302-285-303-289-2-4 3-5 11-2s31-1 50-10c47-19 65-75 49-153-29-141-219-316-343-317-43 0-48-3-65-34-41-77-176-172-244-172-36 0-68 30-77 70-3 17-7 30-10 30-5 0-776-720-838-783-28-28-32-36-15-26 14 8 439 250 946 538l921 523 113 449c62 247 111 451 109 453s-139-122-304-277z"/><path d="m2556 4346c-58-234-106-433-106-441 0-9 128-291 285-628l284-612 918-3 918-2-55 54c-30 29-485 466-1010 971s-994 956-1041 1002l-86 85zm1034-671c0-32 42-124 75-162 31-36 35-48 35-97v-56h-380-380v95 95h260c247 0 261 1 280 20 15 15 20 33 20 70v50h45c33 0 45-4 45-15z"/><path d="m1755 4096c-70-50-98-90-99-140-1-38 1-41 27-44 20-3 46 7 83 32 67 45 107 102 102 148-5 49-47 51-113 4z"/><path d="m1475 3886c-66-30-125-118-105-157 20-36 74-16 133 50 41 45 51 103 21 115-9 3-16 6-17 6-1-1-15-7-32-14z"/><path d="m1283 3152c-557-322-1013-589-1013-592 0-7 2016-1174 2033-1177 7-2 130 253 285 588l273 590-152 327c-83 180-203 437-266 572s-117 253-120 263c-3 9-10 17-17 16-6 0-467-264-1023-587zm767-240c0-67-12-144-49-323-27-129-54-260-61-291l-11-58h-95c-52 0-94 2-94 5 0 7 129 574 136 598 5 15-4 17-95 17h-101v70 70h185 185z"/><path d="m2990 2393c-248-528-543-1171-543-1183 2-20 202-800 211-822 5-12 248 214 1087 1013 594 567 1087 1037 1095 1044 12 13-101 15-902 15h-916zm695-467c45-29 68-97 63-180-8-114-70-206-175-257-50-24-123-29-146-11-12 10-17 4-31-33-23-58-91-126-164-162s-165-39-209-7c-40 29-67 89-71 159-5 75 9 128 49 188 31 47 144 141 159 132 4-3 11-26 15-51 3-26 9-52 11-59 3-6-14-24-36-39-97-64-97-196 0-196 50 0 122 47 144 95 14 28 17 51 13 87l-6 48 52 26c28 15 52 23 54 18 16-48 41-79 65-82 35-4 101 30 127 67 39 54 20 141-31 141-10 0-34-6-53-14-39-17-40-15-51 63l-6 49 53 21c63 25 134 23 174-3z"/><path d="m395 2233c17-17 145-137 285-269 140-131 315-294 388-362l133-125 20 21c44 48 122 37 236-34 92-57 169-141 240-262 31-53 70-117 87-142 29-43 30-44 37-19 3 14 10 60 14 102 3 42 8 77 11 77s113-68 123-76c7-6-32-324-39-324-4 0-19 9-34 21-14 11-26 18-26 15 0-7 611-579 614-575s-231 910-236 913c-3 3-1767 1004-1838 1044l-45 25z"/><path d="m1330 1378c0-17 52-71 187-198 103-96 199-184 213-194l25-20-22 25c-12 13-58 83-103 154-45 72-96 145-113 164-76 80-187 121-187 69z"/></g></svg>