<svg height="512pt" preserveAspectRatio="xMidYMid meet" viewBox="0 0 512 512" width="512pt" xmlns="http://www.w3.org/2000/svg"><g transform="matrix(.1 0 0 -.1 0 512)"><path d="m1970 3839c-322-556-586-1016-587-1022-2-7 253-130 588-285l590-273 327 152c180 83 437 203 572 266s253 117 263 120c9 3 17 9 17 14 0 13-1173 2039-1180 2039-3 0-269-455-590-1011zm720-60c52-28 78-68 86-132l7-47h-97-96v38c0 42-14 62-42 62-26 0-38-39-38-125v-74l38 25c78 54 199 11 223-78 6-25 9-94 7-168-4-147-17-180-89-220-38-22-57-25-134-25-104 0-150 17-191 71-36 47-47 137-42 364 3 172 6 200 24 234 39 76 110 108 225 103 57-3 86-10 119-28zm135-924c0-20-8-20-304-23-183-1-309 2-314 7s-7 17-4 25c6 15 41 16 314 14 300-3 308-3 308-23z"/><path d="m2523 3428c-12-19-16-208-6-248 11-40 40-52 60-24 16 22 18 236 3 265-12 21-45 25-57 7z"/><path d="m2005 4483c-137-147-313-334-389-416l-139-148 21-20c48-44 37-122-34-236-57-92-141-169-262-240-53-31-117-70-142-87-43-29-44-30-19-37 14-3 60-10 102-14 42-3 77-8 77-11s-68-113-76-123c-6-7-324 32-324 39 0 4 9 19 21 34 11 14 18 26 15 26-7 0-579-611-575-614s910 231 913 236c2 2 231 406 511 898 279 492 519 914 532 938 14 23 23 42 21 42-1 0-115-120-253-267z"/><path d="m2871 4730c8-14 250-439 538-946l523-921 449-113c247-62 451-111 453-109 4 4-553 602-566 607-4 2-5-3-2-11s-1-31-10-50c-19-47-75-65-153-49-141 29-316 219-317 343 0 43-3 48-34 65-77 41-172 176-172 244 0 36 30 68 70 77 17 3 30 7 30 10 0 5-720 776-783 838-28 28-36 32-26 15z"/><path d="m1180 3603c-96-103-184-199-194-213l-20-25 25 22c13 12 83 58 154 103 72 45 145 96 164 113 80 76 121 187 69 187-17 0-71-52-198-187z"/><path d="m3726 3747c-28-21-13-63 43-119 39-39 55-48 84-48 42 0 52 18 33 63-13 31-87 107-105 107-5 0-15 2-23 5-7 3-22-1-32-8z"/><path d="m3918 3464c-17-17-6-62 27-112 45-66 101-105 147-100 28 3 33 7 36 32 4 34-50 119-99 155-32 24-98 39-111 25z"/><path d="m796 2569c-230-59-420-109-421-111-2-2 1971-2077 2070-2178 13-12 15 101 15 902v917l-52 24c-29 13-282 131-563 262-280 131-537 250-570 265l-60 27zm757-413c21-8 56-26 78-42 42-29 132-141 124-154-3-4-26-11-51-15-26-3-52-9-59-11-6-3-24 14-39 36-64 97-196 97-196 0 0-50 47-122 95-144 28-14 51-17 87-13l48 6 26-52c15-28 23-52 18-54-48-16-79-41-82-65-4-35 30-101 67-127 54-39 141-20 141 31 0 10-6 34-14 53-17 39-15 40 63 51l49 6 22-58c55-148-20-243-184-232-114 8-206 70-257 175-24 50-29 123-10 146 10 12 6 17-21 26-56 20-107 62-147 122-91 137-73 272 42 312 53 19 150 20 200 3z"/><path d="m3275 2385-610-284-3-918-2-918 54 55c29 30 466 485 971 1010s956 994 1002 1041l85 86-426 107c-234 58-434 106-443 106-10-1-292-129-628-285zm468-160c26-4 47-11 47-16 0-16-50-110-98-184-80-125-203-265-335-381l-68-61 158-28c87-16 162-32 167-36 10-9-35-129-51-136-7-3-114 13-237 36s-227 41-230 41c-12 0-5 31 18 82 18 41 42 69 110 127 153 129 314 333 397 504 28 56 37 67 54 63 11-2 41-8 68-11z"/></g></svg>