<svg height="512pt" preserveAspectRatio="xMidYMid meet" viewBox="0 0 512 512" width="512pt" xmlns="http://www.w3.org/2000/svg"><g transform="matrix(.1 0 0 -.1 0 512)"><path d="m1880 4458-555-181-345-475c-190-261-346-480-348-486-2-8 162-66 434-154l436-142 484 352 484 352v458c0 430-1 458-17 457-10 0-268-82-573-181zm-139-300c38-75 37-154-5-286-21-68-36-134-36-164 0-44 4-54 34-84 42-42 82-45 125-8 35 29 41 70 16 118-8 15-15 30-15 32 0 10 93 65 105 61 16-7 55-107 55-143 0-68-63-151-145-190-128-61-261-2-301 134-17 56-13 85 38 240 22 67 38 126 36 132-2 5-54-26-117-70s-118-80-122-80-22 20-39 44l-30 45 186 130c103 72 189 131 190 131 2 0 13-19 25-42z"/><path d="m2660 4178 1-463 480-348 480-347 437 141c240 78 438 143 440 144 2 2-155 220-348 486l-351 484-542 177c-298 98-554 180-569 183l-28 7zm976-77c94-43 164-134 164-216 0-92-83-189-170-201l-47-6 4-42c4-29 0-54-12-77-37-72-80-100-155-101-127-1-257 134-236 244 14 75 79 138 143 138 31 0 32 1 21 31-26 76 19 182 97 226 51 29 133 30 191 4z"/><path d="m3516 3985c-30-23-56-67-56-97 0-39 47-87 91-94 28-5 41-1 66 20 39 33 57 83 44 118-22 58-101 86-145 53z"/><path d="m3341 3724c-25-21-31-34-31-64 0-74 90-108 144-54 42 43 32 100-24 129-40 21-54 19-89-11z"/><path d="m2100 3219c-250-182-458-333-462-337s73-252 170-552l178-545 569-3c313-1 572 1 577 6 6 6 222 661 354 1074 4 13-101 94-450 348-251 182-461 333-468 335-7 3-218-144-468-326zm650-307c0-67-12-144-49-323-27-129-54-260-61-291l-11-58h-95c-52 0-94 2-94 5 0 7 129 574 136 598 5 15-4 17-95 17h-101v70 70h185 185z"/><path d="m560 2523v-598l345-474c190-261 349-479 354-484s120 146 271 355c145 200 267 368 271 374 11 14-353 1134-371 1144s-848 280-861 280c-5 0-9-247-9-597zm668 5c26-58 62-89 111-95 37-5 41-9 55-51 9-25 14-47 12-49-5-5-627-203-637-203-7 0-41 121-35 127 2 3 96 34 208 69s208 66 215 68c9 4 5 25-11 80l-24 75 27 10c48 17 59 13 79-31zm148-463c28-60 62-85 114-85 32 0 40-11 54-76l7-31-233-73c-128-40-272-86-320-100l-87-28-20 61c-12 34-18 64-14 67 5 4 100 35 213 70s209 67 214 71c4 4-1 36-13 70-11 35-21 68-21 74s17 16 38 22c20 6 38 11 39 12 1 0 14-24 29-54z"/><path d="m4112 2980c-233-76-427-142-432-146-16-19-369-1128-361-1138 4-6 126-174 271-374 145-199 267-359 271-355 5 5 164 222 354 483l344 475 1 598c0 471-3 597-12 596-7 0-204-63-436-139zm-170-756c198-59 207-59 208-12 0 25 10 27 62 12 46-14 46-14 37-47-5-17-9-35-9-38s29-14 65-24c36-9 65-23 65-29 0-13-29-116-33-116-1 0-31 9-67 20-43 13-66 16-71 9-3-6-21-61-39-122-18-62-34-114-36-116-1-2-26 3-55 10-49 13-60 22-198 174-80 88-154 169-163 181-16 19-16 23 3 87 11 37 25 67 30 67 6 0 97-25 201-56z"/><path d="m3897 2044c87-96 151-159 157-153 10 11 45 144 38 150-4 3-59 20-122 39-63 18-122 35-130 38s17-30 57-74z"/><path d="m1692 1218c-149-205-269-374-269-375 5-5 1123-365 1136-365 9-1 158 45 331 101 173 57 425 138 559 182 134 43 245 80 247 82s-118 170-267 375l-270 372h-598-599zm991 137c41-19 81-71 92-117l7-28h-64c-60 0-66 2-86 30-30 40-91 43-126 5-23-25-46-92-46-135 0-21 0-21 31 2 24 18 44 23 92 23 78 0 131-26 172-84 28-40 30-49 30-130 0-80-3-92-30-137-53-85-153-121-257-90-63 18-107 59-140 131-21 45-23 65-23 195 0 164 13 219 67 284 46 56 98 77 178 73 36-2 82-11 103-22z"/><path d="m2495 1006c-30-30-41-87-26-135 14-47 39-70 83-77 94-16 145 132 73 210-33 35-95 36-130 2z"/></g></svg>