<svg height="512pt" preserveAspectRatio="xMidYMid meet" viewBox="0 0 512 512" width="512pt" xmlns="http://www.w3.org/2000/svg"><g transform="matrix(.1 0 0 -.1 0 512)"><path d="m1451 4215c-261-190-479-349-484-354s146-120 355-271c200-145 368-267 374-271 14-11 1134 353 1144 371s280 848 280 861c0 5-247 9-597 9h-598zm859 13c28-90 58-185 67-213 9-27 17-53 19-57 2-3 38 4 79 17l74 22 10-30c17-47 14-55-31-75-58-26-89-62-95-111-5-37-9-41-51-55-25-9-47-14-49-12-5 5-203 627-203 637 0 6 91 35 117 38 7 1 33-67 63-161zm-439-198c36-118 71-216 76-217 5-2 35 6 68 17 32 11 63 20 69 20 7 0 17-18 23-40l10-41-53-25c-59-28-84-62-84-114 0-32-11-40-76-54l-31-7-73 233c-40 128-86 272-100 320l-28 87 57 20c31 11 60 18 65 17s40-98 77-216z"/><path d="m3162 4054-142-436 352-484 352-484h458c350 0 458 3 458 12 0 7-82 264-181 573l-182 560-475 345c-261 190-480 346-486 348-8 2-66-162-154-434zm901-451c68-98 127-183 131-190 12-21-72-56-144-60-54-4-83 1-178 31-68 21-134 36-164 36-44 0-54-4-84-34-42-42-45-82-8-125 29-35 70-41 118-16 15 8 30 15 32 15 10 0 65-93 61-105-7-16-107-55-143-55-68 0-151 63-190 145-61 128-2 261 134 301 56 17 85 13 240-38 67-22 126-38 132-36 5 2-26 54-70 117s-80 118-80 122c0 6 76 66 87 69 1 0 58-80 126-177z"/><path d="m821 3633c-11-37-95-295-185-572l-164-504 39-116c31-94 225-694 310-959 14-41 25-60 32-55 7 4 175 126 374 271l363 263v598 599l-342 248c-189 136-357 258-374 271l-32 24zm400-867c108-39 165-125 157-233-7-101-58-168-140-188l-28-7v64c0 60 2 66 30 86 40 30 43 91 5 126-25 23-92 46-135 46-21 0-21 0 2-31 18-24 23-44 23-92 0-78-26-131-84-172-40-28-49-30-130-30-80 0-92 3-137 30-85 53-121 153-90 257 22 78 87 134 183 158 61 15 290 6 344-14z"/><path d="m855 2646c-39-17-55-37-61-78-16-94 132-145 210-73 28 26 35 79 15 117-22 42-106 59-164 34z"/><path d="m2325 3311-540-177-3-569c-1-313 1-572 6-577 6-6 661-222 1074-354 13-4 94 101 348 450 182 251 333 461 335 468 5 13-656 931-672 934-4 1-251-78-548-175zm502-362c82-21 143-102 143-190 0-71-41-159-164-349l-55-85 100-3 99-3v-64-65h-208-207l5 63c5 56 14 76 89 202 148 247 179 323 152 374-13 23-40 28-59 9-7-7-12-40-12-80v-68h-90-91l6 63c9 85 21 119 53 150 56 54 141 70 239 46zm-357-379v-380h-95-95v260c0 247-1 261-20 280-15 15-33 20-70 20h-50v45c0 33 4 45 15 45 33 0 125 43 161 75 35 30 45 34 97 35h57z"/><path d="m3367 1979-347-480 141-437c78-240 143-438 144-440 2-2 220 155 486 348l484 351 177 542c98 298 180 554 183 570l7 27h-464l-463-1zm383-61c53-27 90-78 90-124 0-32 0-33 31-22 47 16 116 4 163-29 112-79 116-225 9-343-94-106-226-105-316 0-27 32-38 56-43 90l-6 47-42-4c-63-8-132 31-163 90-19 37-19 114 0 159 21 51 85 118 132 139 53 25 92 24 145-3z"/><path d="m3601 1784c-29-37-27-85 5-118 43-42 100-32 129 24 21 40 19 54-11 89-35 42-92 44-123 5z"/><path d="m3830 1633c-44-40-50-90-16-130 51-61 120-64 165-7 38 49 24 106-36 146-40 26-78 23-113-9z"/><path d="m1335 1540c-203-148-369-273-368-277s217-164 480-355l478-347 598-1c328 0 597 3 597 8 0 16-279 865-287 872-4 4-255 87-558 185-302 98-554 179-560 181-5 2-176-118-380-266zm888-134c31-9 57-21 57-27s-25-97-56-201c-59-198-59-207-12-208 25 0 27-10 12-62-14-46-14-46-47-37-17 5-35 9-38 9s-14-29-24-65c-9-36-23-65-29-65-13 0-116 29-116 33 0 1 9 31 20 67 13 43 16 66 9 71-6 3-61 21-122 39-62 18-114 34-116 36-2 1 3 26 10 55 13 50 22 60 193 216 99 90 184 162 190 160s37-12 69-21z"/><path d="m2002 1184c-62-58-112-109-112-114 0-7 121-45 144-45 8 0 88 256 82 262-1 1-52-45-114-103z"/></g></svg>