<svg height="512pt" preserveAspectRatio="xMidYMid meet" viewBox="0 0 512 512" width="512pt" xmlns="http://www.w3.org/2000/svg"><g transform="matrix(.1 0 0 -.1 0 512)"><path d="m2000 4553c0-17 279-866 287-873 18-16 1127-369 1137-361 6 4 174 126 374 271 199 145 359 267 355 271-5 5-222 164-483 354l-475 344-597 1c-329 0-598-3-598-7zm1098-198c29-9 52-17 52-18s-9-31-20-67c-13-43-16-66-9-71 6-3 61-21 122-39 62-18 114-34 116-36 2-1-3-26-10-55-13-49-22-60-174-198-88-80-169-154-181-163-19-16-23-16-87 3-37 11-67 25-67 30 0 6 25 97 56 201 59 198 59 207 12 208-25 0-27 10-12 62 14 46 14 46 47 37 17-5 35-9 38-9s14 29 24 65c9 36 23 65 29 65 7 0 36-7 64-15z"/><path d="m3076 4089c-18-54-75-254-73-256 5-4 227 208 227 216 0 5-28 16-62 26-34 9-68 19-75 22s-15-1-17-8z"/><path d="m1325 4149-480-350-177-542c-98-298-180-554-183-569l-7-28h464l463 1 348 480 347 480-142 439c-79 242-145 440-148 439-3 0-221-158-485-350zm-9-368c59-27 112-94 120-151l6-47 42 4c29 4 54 0 77-12 72-37 100-80 101-155 1-127-134-257-244-236-75 14-138 79-138 143 0 31-1 32-31 21-47-16-116-4-163 29-112 79-116 225-9 343 68 76 156 99 239 61z"/><path d="m1184 3660c-54-22-81-102-49-144 23-30 67-56 97-56 65 0 119 92 84 145-31 46-92 72-132 55z"/><path d="m1417 3469c-19-11-47-60-47-83 0-8 12-28 26-45 52-62 144-28 144 54 0 61-71 104-123 74z"/><path d="m3902 3429-372-270v-598-599l373-270c204-149 373-269 374-269 5 5 365 1123 365 1136 1 9-45 158-101 331-57 173-138 425-182 559-43 134-80 245-82 247s-170-118-375-267zm434-674c85-53 121-153 90-257-18-63-59-107-131-140-45-21-65-23-195-23-167 0-221 13-288 70-53 46-76 106-70 182 7 101 58 168 141 188l27 7v-64c0-60-2-66-30-86-40-30-43-91-5-126 25-23 92-46 135-46h21l-20 26c-43 55-36 163 15 230 40 53 97 76 185 72 64-3 83-8 125-33z"/><path d="m4145 2645c-42-22-55-43-55-87 0-71 77-114 159-89 47 14 70 39 78 83 4 29 0 41-24 68s-38 33-79 37c-33 3-59-1-79-12z"/><path d="m1910 3036c-182-251-333-461-335-468-4-10 626-892 663-930 4-4 252 73 552 170l545 178 3 569c1 313-1 572-6 577-6 6-661 222-1074 354-13 4-94-101-348-450zm660-396v-380h-95-95v260c0 247-1 261-20 280-15 15-33 20-70 20h-50v45c0 33 4 45 15 45 33 0 125 43 161 75 35 30 45 34 97 35h57z"/><path d="m480 2458c0-7 82-264 181-573l182-560 475-345c261-190 480-346 486-348 8-2 66 162 154 434l142 436-352 484-352 484h-458c-350 0-458-3-458-12zm1018-454c84-35 152-136 152-228 0-96-60-173-158-202-56-17-85-13-240 38-67 22-126 38-132 36-5-2 26-54 70-117s80-118 80-122-20-22-44-39l-45-30-124 177c-68 98-127 183-131 190-12 21 72 56 144 60 54 4 83-1 178-31 68-21 134-36 164-36 44 0 54 4 84 34 42 42 45 82 8 125-29 35-70 41-118 16-15-8-30-15-32-15-10 0-65 93-61 105 7 16 102 54 140 54 15 1 44-6 65-15z"/><path d="m2847 1626c-319-104-562-188-567-196-10-18-280-848-280-861 0-5 247-9 598-9h597l474 345c261 190 479 349 484 354 7 7-716 542-740 548-5 0-259-81-566-181zm473-308c40-128 86-272 100-320l28-87-61-20c-34-12-64-18-67-14-4 5-35 100-70 213s-67 209-71 214c-4 4-36-1-70-13-35-11-68-21-74-21s-16 18-22 40l-10 41 53 25c59 28 75 49 83 109 5 36 10 40 46 51 22 7 45 13 51 13 6 1 44-104 84-231zm-481-68c28-88 74-232 102-321 28-88 49-162 47-164-8-7-121-36-125-31-3 2-34 96-69 208s-66 208-68 215c-4 9-25 5-80-11l-75-23-10 30c-17 47-14 55 32 75 57 26 88 62 94 111 5 36 9 42 47 55 22 8 44 15 48 15 4 1 30-71 57-159z"/></g></svg>