<svg height="512pt" preserveAspectRatio="xMidYMid meet" viewBox="0 0 512 512" width="512pt" xmlns="http://www.w3.org/2000/svg"><g transform="matrix(.1 0 0 -.1 0 512)"><path d="m2235 4543c-176-58-430-140-564-184-134-43-245-80-247-82s118-170 267-375l270-372h598 599l270 373c149 204 269 373 269 374-2 1-1101 358-1132 367-5 1-154-44-330-101zm391-118c59-17 104-60 136-130 21-45 23-65 23-195 0-167-13-221-70-288-46-53-106-76-182-70-101 7-168 58-188 141l-7 27h64c60 0 66-2 86-30 30-40 91-43 126-5 23 25 46 92 46 135 0 21 0 21-31-2-24-18-44-23-92-23-78 0-131 26-172 84-28 40-30 49-30 130 0 80 3 92 30 136 55 90 151 123 261 90z"/><path d="m2502 4305c-52-44-56-136-7-189 33-35 95-36 130-2 30 30 41 87 26 135-14 47-39 70-83 77-27 5-40 1-66-21z"/><path d="m912 3678-351-483-1-597c0-329 3-598 8-598 16 0 865 279 872 287 16 18 369 1127 361 1137-4 6-122 169-261 361-139 193-258 356-265 363-10 11-81-81-363-470zm144-330c43-12 61-29 193-173 80-88 154-169 163-181 16-19 16-23-3-87-11-37-25-67-30-67-6 0-97 25-201 56-198 59-207 59-208 12 0-25-10-27-62-12-46 14-46 14-37 47 5 17 9 35 9 38s-29 14-65 24c-36 9-65 23-65 29 0 13 29 116 33 116 1 0 31-9 67-20 45-14 66-16 71-8 4 6 22 62 40 124 18 63 36 114 41 114 4 0 29-6 54-12z"/><path d="m1044 3163c-11-38-19-72-19-77 0-8 256-88 262-82 4 4-208 226-217 226-4 0-16-30-26-67z"/><path d="m3590 3798c-145-200-267-368-271-374-11-14 353-1134 371-1144s848-280 861-280c5 0 9 247 9 598v597l-345 474c-190 261-349 479-354 484s-120-146-271-355zm639-410c12-34 18-65 14-68-5-4-100-35-213-70s-209-67-214-71c-4-4 1-36 13-70 11-35 21-68 21-74s-18-16-40-22l-41-10-25 53c-28 59-49 75-109 83-37 6-40 9-53 54-8 27-12 50-10 52s145 48 318 103 316 101 317 101c0 1 11-27 22-61zm145-459c9-34 15-64 12-66-2-3-96-34-208-69s-208-66-215-68c-9-4-5-25 11-80l23-75-30-10c-47-17-55-14-75 32-26 57-62 88-111 94-37 5-41 9-55 51-9 25-14 47-12 50 5 5 617 200 632 201 6 1 18-27 28-60z"/><path d="m1985 3330c-4-7-258-782-351-1072-4-13 101-94 450-348 251-182 461-333 468-335 10-4 892 626 930 663 4 4-73 252-170 552l-178 545-571 3c-375 1-574-1-578-8zm725-620v-250h30 30v-65-65h-30-30v-65-65h-95-95v65 65h-115-115v57c0 43 18 112 76 292 42 129 80 246 85 258 8 22 13 23 134 23h125z"/><path d="m1055 1958c-236-78-431-142-433-143-2-2 155-220 348-486l351-484 542-177c298-98 554-180 570-183l27-7v464l-1 463-476 345c-262 190-481 346-487 347-6 0-204-62-441-139zm761-329c81-50 133-142 120-211-14-75-79-138-143-138-31 0-32-1-21-31 16-47 4-116-29-163-79-112-225-116-343-9-106 94-105 226 0 316 31 27 56 38 90 43l47 6-4 47c-4 53 23 110 69 144 53 39 147 38 214-4z"/><path d="m1666 1514c-42-43-32-100 24-129 40-21 54-19 89 11 25 21 31 34 31 64 0 74-90 108-144 54z"/><path d="m1503 1306c-61-51-64-120-7-165 49-38 106-24 146 36 26 40 23 78-9 113-40 44-90 50-130 16z"/><path d="m3133 1748-483-352v-458c0-350 3-458 12-458 7 0 264 82 573 181l560 182 345 475c190 261 346 480 348 486 2 8-159 64-425 151-235 76-432 140-438 141-5 2-227-155-492-348zm303-119c51-24 92-75 110-137 17-56 13-85-38-240-22-67-38-126-36-132 2-5 54 26 117 70s118 80 122 80 22-20 39-44l30-45-177-124c-98-68-183-127-190-131-21-12-56 72-60 144-4 54 1 83 31 178 21 68 36 134 36 164 0 44-4 54-34 84-42 42-82 45-125 8-35-29-41-70-16-118 8-15 15-30 15-32 0-10-93-65-105-61-16 7-55 107-55 143 0 37 27 95 63 133 72 76 188 101 273 60z"/></g></svg>