<svg height="512pt" preserveAspectRatio="xMidYMid meet" viewBox="0 0 512 512" width="512pt" xmlns="http://www.w3.org/2000/svg"><g transform="matrix(.1 0 0 -.1 0 512)"><path d="m1880 4593c173-67 1635-603 1644-603s20 86 39 298c15 163 27 300 27 305 0 4-388 7-862 6-475 0-856-3-848-6zm1002-24c107-15 231-68 245-106 8-20-22-43-54-43-40 0-85 28-78 49 8 25-30 48-111 68-48 12-68 13-76 5s-6-13 8-17c41-13 80-37 93-57 23-37-6-51-114-56-82-4-106-1-177 22-114 36-162 64-166 99-5 45 32 54 210 50 84-2 183-8 220-14zm428-249 25-20h-205-205l28-25c15-14 27-30 27-35 0-17-48-11-88 10-20 11-74 32-119 45-45 14-85 30-88 35-4 7 101 10 297 10 285 0 304-2 328-20z"/><path d="m1486 4368c-10-310-38-1659-34-1662 1-1 424 244 938 545 1091 639 1024 599 1018 604-5 5-1899 705-1909 705-4 0-10-87-13-192zm789-277c48-22 69-44 90-96 23-53 6-111-52-175-75-83-315-190-427-190-55 0-109 21-143 55-30 30-33 38-33 97 0 52 6 72 30 115 50 87 160 162 290 197 79 21 196 20 245-3zm249-434c9-23 16-45 16-48s-91-48-202-99c-112-51-207-97-212-101-6-5 0-29 14-60l24-51-23-19c-34-28-56-23-90 18-26 31-38 37-86 44-63 8-97 32-93 63 2 16 65 48 308 158 168 76 310 138 316 138s19-19 28-43z"/><path d="m2105 3991c-67-17-191-77-228-109-80-73-83-132-7-132 166 0 414 137 384 213-12 32-80 45-149 28z"/><path d="m3736 4399c-3-19-15-137-27-264l-21-230 59-55c206-192 393-360 393-353 0 4-29 46-65 92s-65 88-65 92c0 16 14 9 55-27 22-19 83-70 135-113 102-84 190-173 190-192 0-8-4-8-12-2-7 6-53 41-103 80-115 89-116 90-94 45 17-33 428-425 438-416 5 5-438 696-465 723-41 43-39 13 4-68 23-43 42-82 42-87 0-30-326 354-373 440-15 27-26 50-24 52 1 2 42-28 89-67 83-66 107-81 93-59-3 6-2 10 4 10 9 0 37-31 74-80 16-22 16-20-1 10-18 33-309 490-317 498-2 2-6-11-9-29z"/><path d="m1272 4313c-148-229-1055-1650-1059-1660s107-13 536-13h541l1 118c0 64 8 457 18 872 9 415 16 756 16 758-1 1-25-32-53-75zm-169-745c18-24 19-32 8-85-12-61-39-108-62-108-9 0-17 19-23 58-6 45-12 57-26 57-40 0-100-112-84-154 4-9 15-21 25-27 36-19 23-58-35-113-55-52-84-113-70-150s75 2 102 67c14 32 27 34 42 8 16-30 13-44-22-95-40-62-95-98-140-94-27 2-36 10-52 42-16 33-17 45-7 90 6 28 27 77 46 109 30 49 34 65 34 119-1 111 48 213 131 275 56 41 103 42 133 1z"/><path d="m2518 3142c-543-317-987-579-987-582 0-8 1974-1160 1988-1160 8 0 11 295 11 1160 0 921-3 1160-12 1160-7 0-457-260-1000-578zm562-300c0-67-12-144-49-323-27-129-54-260-61-291l-11-58h-95c-52 0-94 2-94 5 0 7 129 574 136 598 5 15-4 17-95 17h-101v70 70h185 185z"/><path d="m3690 2560v-1122l43 38c233 209 1177 1079 1177 1084s-944 875-1177 1084l-43 38zm547 446c88-95 96-341 14-420-44-42-65-32-69 31-3 43 1 55 23 79 35 38 41 68 24 133-11 45-20 59-43 70-42 20-76-1-96-56-13-38-12-51 4-132 18-86 18-92 2-117-10-14-23-23-31-20s-42 10-77 17c-79 14-116 28-120 42-2 7-2 96 0 200l3 187h28c48 0 52-16 49-160-2-120-1-133 17-146 19-14 55-19 55-8 0 3-5 24-11 48-8 31-8 60 0 102 32 171 142 244 228 150zm53-711v-65h-150-151l3-75c3-82-9-108-40-89-11 8-19 30-23 69-5 41-13 63-27 74-30 24-42 55-42 105v46h215 215z"/><path d="m210 2474c0-6 1097-1724 1109-1736 3-4 5 52 4 125-13 572-33 1513-33 1560v57h-540c-297 0-540-3-540-6zm670-321c91-60 152-178 153-293 1-55-4-73-31-121-36-63-42-108-14-110 9-1 36-1 59 0 53 3 81-12 99-54 27-65 26-65-102-65h-115l-16 38c-10 22-16 66-16 112-1 62 4 86 27 134 38 79 38 148 2 210-49 83-103 67-91-26 6-40 4-48-9-48-44 0-80 104-61 177 15 61 64 80 115 46z"/><path d="m1450 2387c0-146 41-1822 45-1825 4-4 1869 680 1904 698 11 6 9 11-10 23-13 8-455 267-981 575l-958 560zm546-752c14-14 24-31 21-38-2-7-24-22-49-34-49-23-78-56-78-87 0-22 83-106 105-106 10 0 15 11 15 35 0 102 114 180 225 155 71-16 109-34 155-76 116-105 105-245-25-305-58-27-112-23-233 16-168 54-275 127-321 220-34 68-36 103-9 155 44 86 141 118 194 65z"/><path d="m2136 1419c-46-55-28-105 49-134 94-36 184 0 171 69-3 16-11 35-18 43-22 27-87 53-132 53-37 0-48-5-70-31z"/><path d="m4175 1664c-241-222-450-414-463-427l-23-24 21-234c11-129 24-246 28-262 6-25 24 0 197 269 105 163 194 304 199 312 15 25-153-108-185-147-16-19-35-49-43-66-16-34-56-75-56-57 0 6 4 22 10 36 7 19 6 25-6 28s-11 9 4 38c12 23 80 83 192 171l173 137 199 312c110 171 198 313 196 314-1 2-201-178-443-400zm234 145c-13-24-53-67-89-97-159-132-181-154-210-212-16-32-34-61-40-65-13-8-13 21 0 46 7 13 7 19 0 19-15 0-12 32 6 58 19 27 346 304 352 297 2-2-6-23-19-46z"/><path d="m2689 827-816-302 295-3c209-2 299 1 308 9 19 16 17 39-3 55-42 30-1 34 313 32 303-3 308-3 272-21-32-14-67-17-231-17-174 0-197-2-218-19-13-10-37-23-54-29-22-8 111-11 503-11l532-1v23c0 12-11 139-25 282s-25 270-25 283c0 14-6 22-17 21-10 0-385-136-834-302zm611 42c54-12 63-25 43-56-44-66-213-115-403-116-144-1-247 17-256 45-7 24 18 53 66 78 42 21 178 55 187 46s-16-34-40-41c-12-4-41-14-65-22-40-15-42-17-26-34 12-13 31-19 61-19 24 0 42 4 39 8-8 14 8 29 63 56 109 55 237 77 331 55z"/></g></svg>