<svg height="512pt" preserveAspectRatio="xMidYMid meet" viewBox="0 0 512 512" width="512pt" xmlns="http://www.w3.org/2000/svg"><g transform="matrix(.1 0 0 -.1 0 512)"><path d="m1997 4303-556-608 559-3c308-1 812-1 1120 0l559 3-553 605c-305 332-558 606-563 607-5 2-260-270-566-604zm459-8c56-16 108-63 102-92-2-14-14-19-55-21-43-3-55 1-79 23-38 35-68 41-133 24-45-11-59-20-70-43-20-42 1-76 56-96 38-13 51-12 132 4 86 18 92 18 117 2 14-10 23-23 20-31s-10-42-17-77c-14-79-28-116-42-120-7-2-96-2-199 0l-188 3v28c0 48 16 52 160 49 120-2 133-1 146 17 8 10 14 27 14 38 0 16-4 17-32 10-49-12-131-7-187 12-174 57-170 211 7 260 31 9 62 18 67 20 27 9 137 3 181-10zm434-155v-151l75 3c82 3 108-9 89-40-8-11-30-19-69-23-41-5-63-13-74-27-24-30-55-42-105-42h-46v215 215h65 65z"/><path d="m1706 4396c-192-124-358-234-369-245-38-38-7-35 72 7 43 23 82 42 87 42 30 0-354-326-440-373-27-15-50-26-52-24-2 1 28 42 67 89 66 83 81 107 59 93-5-3-10-2-10 4 0 9 31 37 80 74 52 38-66-33-284-173-192-122-223-146-204-152 13-3 131-16 263-28l240-22 55 59c192 206 360 393 353 393-4 0-46-29-92-65s-88-65-92-65c-16 0-9 14 27 55 19 22 70 83 113 135 84 102 173 190 192 190 8 0 8-4 2-12-6-7-41-53-80-103-38-49-72-95-76-101-15-27 77 32 111 71 20 23 106 117 190 209 85 91 150 166 145 166-4-1-165-101-357-224z"/><path d="m3157 4502c59-64 251-273 426-465 178-194 326-347 335-347 42 1 503 48 507 51 3 4-523 346-603 393-25 15 108-153 147-185 19-16 49-35 66-43 34-16 75-56 57-56-6 0-22 4-36 10-19 7-25 6-28-6s-9-11-38 4c-23 12-83 80-171 192l-137 173-308 198c-170 109-313 198-317 199-5 0 40-53 100-118zm157-95c22-12 64-51 94-87 133-160 154-181 212-210 32-16 61-34 65-40 8-13-21-13-46 0-13 7-19 7-19 0 0-15-32-12-57 5-17 12-224 252-292 338-18 23-4 21 43-6z"/><path d="m521 2728c0-475 3-856 6-848 67 173 603 1635 603 1644s-86 20-297 39c-164 15-301 27-305 27-5 0-8-388-7-862zm326 226c13 14 27 26 33 26 17 0 11-48-10-88-11-20-32-74-45-119-14-45-30-85-35-88-7-4-10 100-10 295 0 270 2 303 18 327 17 26 17 22 22-176l5-203zm-157 157c23-44-5-127-39-116-25 8-48-30-68-111-12-48-13-68-5-76s13-6 17 8c13 41 37 80 57 93 37 23 51-6 56-114 4-82 1-106-22-177-36-114-64-162-99-166-49-6-56 32-46 258 8 200 18 259 61 345 38 74 67 93 88 56z"/><path d="m4285 3564c-126-12-245-23-262-23-19-1-33-6-33-13s136-382 302-834l303-821 3 295c2 209-1 299-9 308-16 19-39 17-55-3-30-42-34-1-32 313 3 303 3 308 21 272 14-32 17-67 17-231 0-174 2-197 19-218 10-13 23-37 29-54 8-22 11 111 11 503l1 532-42-1c-24-1-146-12-273-25zm71-279c13-23 34-84 45-136 39-170 25-449-23-465-24-7-53 18-78 66-21 42-55 178-46 187s34-16 41-40c4-12 14-41 22-65 15-40 17-42 34-26 13 12 19 31 19 61 0 23-3 42-7 42-23-4-33 7-62 71-49 105-68 212-54 296 7 37 17 70 24 75 19 11 57-19 85-66z"/><path d="m1400 3519c0-14 1152-1988 1160-1988s1160 1974 1160 1988c0 8-295 11-1160 11-864 0-1160-3-1160-11zm1425-272c17-8 40-26 51-39 63-70 57-222-11-258l-25-13 30-19c17-10 36-30 42-46 15-38 15-219-1-264-15-46-68-93-118-107-91-26-218-3-266 47-36 38-47 79-47 179v83h95 94l3-102c3-102 3-103 28-103 23 0 26 5 33 60 5 33 6 84 2 112-7 60-30 83-82 83h-33v55 55h36c57 0 72 13 79 72 7 64-5 112-30 116-26 6-35-15-35-80v-58h-95-95v65c0 144 56 189 225 182 55-3 102-10 120-20zm-415-367v-380h-95-95v260c0 247-1 261-20 280-15 15-33 20-70 20h-50v45c0 33 4 45 15 45 33 0 125 43 161 75 35 30 45 34 97 35h57z"/><path d="m1253 3383c-6-15-164-446-353-956-188-510-340-930-338-933 6-5 1789-46 1828-42 24 3-5 54-541 971-312 533-571 973-577 979s-13 0-19-19zm357-1045c51-112 97-207 101-212 5-6 29 0 60 14l51 24 19-23c28-34 23-56-18-90-31-26-37-38-44-86-8-63-32-97-63-93-16 2-48 65-158 308-76 168-138 310-138 316 0 10 61 41 86 43 6 1 53-90 104-201zm-365 16c80-38 186-208 226-362 31-122 21-192-36-249-30-30-38-33-97-33-52 0-72 6-115 30-122 70-213 251-213 422 0 106 31 165 105 200 43 20 76 18 130-8z"/><path d="m1146 2244c-39-39-32-117 24-247 54-125 133-202 180-177 25 13 26 61 5 153-27 118-90 232-147 267-40 24-42 24-62 4z"/><path d="m3837 3389c-8-13-267-455-575-981l-560-958h31c146 0 1822 41 1825 45 4 4-680 1869-698 1904-6 11-11 9-23-10zm10-930c64-24 112-100 113-177 0-23-16-91-35-150-54-168-127-275-220-321-68-34-103-36-155-9-86 44-118 141-65 194 14 14 31 24 38 21 7-2 22-24 34-49 23-49 56-78 87-78 22 0 106 83 106 105 0 10-11 15-35 15-71 0-132 55-155 138-20 77 20 190 92 258 64 61 129 78 195 53z"/><path d="m3740 2347c-37-19-70-84-70-139 0-39 4-50 31-72 55-46 105-28 134 49 23 59 16 132-15 157-26 21-46 22-80 5z"/><path d="m730 1324c0-4 1719-1104 1738-1111 9-4 12 107 12 536v541h-72c-73 0-1339 27-1560 33-65 2-118 2-118 1zm920-215c54-11 108-48 97-66-4-6-32-14-62-18-66-8-73-28-25-69 58-49 137-55 154-11 12 33 57 17 110-39 52-55 113-84 150-70s-2 75-66 102c-33 14-35 27-9 42 30 16 44 13 95-22 62-40 98-95 94-140-2-27-10-36-42-52-33-16-45-17-90-7-28 6-77 27-109 46-49 30-65 34-119 34-112-1-220 52-278 136-38 55-39 96-4 124 31 24 36 25 104 10z"/><path d="m3810 1315c-300-7-686-16-857-20l-313-7v-539c0-297 3-539 6-539 6 0 1725 1098 1739 1111 5 5 2 8-10 8-11-1-265-7-565-14zm-200-271v-115l-37-16c-23-10-67-16-113-16-62-1-86 4-134 27-79 38-148 38-210 2-83-49-67-103 27-91 39 6 47 4 47-9 0-44-104-80-177-61-120 29-57 168 106 236 107 45 184 45 262 1 63-36 108-42 110-14 1 9 1 36 0 59-3 52 12 81 52 98 66 29 67 28 67-101z"/></g></svg>