<svg height="512pt" preserveAspectRatio="xMidYMid meet" viewBox="0 0 512 512" width="512pt" xmlns="http://www.w3.org/2000/svg"><g transform="matrix(.1 0 0 -.1 0 512)"><path d="m1530 4578c0-13 11-140 25-283s25-270 25-282c0-13 6-23 13-23 6 0 381 136 833 302l821 303-295 3c-209 2-299-1-308-9-19-16-17-39 4-55 41-30 0-34-314-32-303 3-308 3-272 21 32 14 67 17 231 17 174 0 197 2 218 19 13 10 38 23 54 29 22 8-111 11-502 11l-533 1zm842-170c89-16 88-63-2-108-42-21-178-55-187-46s16 34 40 41c12 4 41 14 65 22 40 15 42 17 26 34-12 13-31 19-61 19-23 0-42-3-42-7 4-23-7-33-71-62-105-49-212-68-296-54-75 13-89 26-67 60 62 95 364 146 595 101z"/><path d="m3425 4491c-99-37-526-195-948-351-608-224-765-286-755-295 7-7 448-267 981-578l967-565v41c0 23-9 431-20 907s-20 875-20 888c0 12-6 22-12 21-7 0-94-31-193-68zm-437-566c168-54 275-127 321-220 34-68 36-103 9-155-44-86-141-118-194-65-14 14-24 31-21 38 2 7 24 22 49 34 49 23 78 56 78 87 0 22-83 106-105 106-10 0-15-11-15-35 0-102-114-180-225-155-71 16-109 34-155 76-116 105-105 245 25 305 58 27 112 23 233-16z"/><path d="m2800 3837c-89-45-8-166 112-167 39 0 50 4 72 31 44 52 30 99-37 130-48 21-111 24-147 6z"/><path d="m1185 4134c-104-163-194-304-199-312-15-25 153 108 185 147 16 19 35 49 43 66 16 34 56 75 56 57 0-6-4-22-10-36-7-19-6-25 6-28s11-9-4-38c-12-23-80-83-192-171l-173-137-199-312c-110-171-198-313-196-314 3-3 845 766 906 827l23 24-21 234c-11 129-24 246-28 262-6 25-24 0-197-269zm-135-493c-7-14-7-21 0-21 15 0 12-32-6-58-19-27-346-304-352-297-12 12 51 95 108 143 155 129 181 155 206 205 35 70 48 85 52 64 2-9-2-25-8-36z"/><path d="m3797 4257c13-572 33-1513 33-1559v-58h540c297 0 540 3 540 6 0 6-1097 1724-1109 1736-3 4-5-52-4-125zm410-684c10-23 16-67 16-113 1-62-4-86-27-134-38-79-38-148-2-210 49-83 103-67 91 27-6 39-4 47 9 47 44 0 80-104 61-177-29-120-168-57-236 106-45 107-45 184-1 262 36 63 42 108 15 110-10 1-37 1-60 0-53-3-81 12-99 54-27 65-26 65 102 65h115z"/><path d="m1590 2560c0-864 3-1160 11-1160 14 0 1988 1152 1988 1160s-1974 1160-1988 1160c-8 0-11-295-11-1160zm952 383c50-28 78-92 78-179 0-76-18-116-61-129-18-6-17-8 13-29 42-28 57-71 57-171 1-103-11-150-45-186-73-76-271-79-349-5-40 38-55 88-55 186 0 96 13 143 50 173 22 19 26 26 15 31-33 12-55 69-55 139 0 105 36 158 128 188 46 15 187 4 224-18zm-432-363v-380h-95-95v260c0 247-1 261-20 280-15 15-33 20-70 20h-50v45c0 33 4 45 15 45 33 0 125 43 161 75 35 30 45 34 97 35h57z"/><path d="m2382 2538c-18-18-16-199 2-224 12-15 18-17 33-8s18 27 21 108c3 96-7 136-31 136-7 0-18-5-25-12z"/><path d="m820 3126c-333-305-605-560-605-566s272-261 605-566l605-553 3 559c1 308 1 812 0 1120l-3 559zm358-78c5-7 12-37 14-67 4-38 11-59 26-70 30-24 42-55 42-105v-46h-215-215v65 65h151 151l-4 63c-3 34-1 72 3 85 9 24 31 29 47 10zm-240-544c3-44-1-56-23-80-35-38-41-68-24-133 11-45 20-59 43-70 42-20 76 1 96 56 13 38 12 51-4 132-18 86-18 92-2 117 10 14 23 23 31 20s42-10 77-17c79-14 116-28 120-42 2-7 2-96 0-199l-3-188h-28c-48 0-52 16-49 160 2 120 1 133-17 146-10 8-27 14-38 14-16 0-17-4-10-32 19-77-4-207-48-263-52-65-126-69-178-10-56 64-86 222-61 325 15 62 63 122 94 118 18-3 21-11 24-54z"/><path d="m3829 2363c0-65-8-458-18-873-9-415-16-756-16-758 3-4 1103 1712 1112 1736 4 9-107 12-536 12h-541zm525-217c16-33 17-45 7-90-6-28-27-77-46-109-30-49-34-65-34-119 1-113-52-220-136-278-56-38-99-38-128 2-18 24-19 32-8 85 12 61 39 108 62 108 9 0 17-19 23-57 10-68 29-76 70-28 49 58 55 137 11 154-33 12-17 57 39 110 55 52 84 113 70 150s-75-2-102-66c-14-33-27-35-42-9-16 30-13 44 21 95 42 62 93 97 139 94 30-3 38-9 54-42z"/><path d="m2730 1869c-514-301-955-560-980-574-33-20-40-29-30-35 38-19 1901-702 1906-698 5 6 46 1789 42 1828-3 24-52-3-938-521zm339-46c26-31 38-37 86-44 63-8 97-32 93-63-2-16-65-48-308-158-168-76-310-138-316-138-9 0-44 72-44 91 0 3 91 48 203 99 111 51 206 97 211 101 6 5 0 29-14 60l-24 51 23 19c34 28 56 23 90-18zm236-344c21-6 54-26 72-44 30-30 33-38 33-96 0-53-6-73-30-116-70-123-252-213-425-213-109 1-166 33-200 115-38 90 34 192 195 275 151 77 268 103 355 79z"/><path d="m3130 1351c-115-30-226-95-255-150-19-37-12-56 26-71 43-18 117-5 221 40 126 54 203 133 178 180-14 25-76 26-170 1z"/><path d="m500 2064c0-12 441-698 466-723 41-43 39-13-4 68-23 43-42 82-42 87 0 30 326-354 373-440 15-27 26-50 24-52-1-2-42 28-89 67-83 66-107 81-93 59 3-5 2-10-4-10-9 0-37 31-74 80-38 52 33-66 173-284 122-192 146-223 152-204 3 13 16 131 28 263l22 240-59 55c-206 192-393 360-393 353 0-4 29-46 65-92s65-88 65-92c0-16-14-9-55 27-22 19-83 70-135 113-102 84-190 173-190 192 0 8 4 8 13 2 6-6 53-41 102-80 50-38 95-72 101-76 27-15-32 77-71 111-23 20-117 106-209 190-91 85-166 150-166 146z"/><path d="m1556 829c-15-165-26-303-23-305 2-2 389-3 859-2l855 3-821 303c-452 166-826 302-832 302s-21-115-38-301zm672 41c20-11 74-32 119-45 45-14 85-30 88-35 4-7-101-10-297-10-285 0-304 2-328 20l-25 20h205 205l-28 25c-15 14-27 30-27 35 0 17 48 11 88-10zm279-185c110-35 157-64 161-98 6-49-32-56-258-47-207 9-278 23-364 72-54 31-67 55-42 74 26 18 60 18 97-2 22-11 28-20 24-33-8-25 30-48 111-68 48-12 68-13 76-5s6 13-8 17c-71 23-115 64-94 90 28 34 192 33 297 0z"/></g></svg>