<svg height="512pt" preserveAspectRatio="xMidYMid meet" viewBox="0 0 512 512" width="512pt" xmlns="http://www.w3.org/2000/svg"><g transform="matrix(.1 0 0 -.1 0 512)"><path d="m1640 4389c-454-291-847-543-874-560-26-17-46-32-43-35 5-6 1497 23 1655 32l102 6v544c0 299-3 544-7 543-5 0-379-239-833-530zm500-58c35-25 35-51 1-98-42-58-87-89-172-119-96-34-164-30-229 11-25 16-60 29-80 29l-35 1-5-77c-3-42-7-79-10-81-3-3-24-12-48-20l-42-15v114c0 138 1 139 135 139 77-1 98-5 145-28 71-35 129-35 196-2 59 30 79 56 63 86-9 18-18 20-65 17-45-2-54 0-54 13 0 24 22 38 71 49 55 11 97 5 129-19z"/><path d="m2640 4376v-544l133-6c219-10 1619-38 1624-32 3 2-12 16-34 29-21 13-415 266-876 561-462 295-841 536-843 536s-4-245-4-544zm458-30c22-8 59-27 83-43 37-24 52-28 118-28 122-1 230-62 282-159l24-45-21-28c-26-35-79-42-140-18-78 30-82 64-7 65 66 0 83 28 41 67-59 53-148 71-168 33-20-37-64-26-107 27-42 50-84 73-137 73-71 0-49-72 32-107 40-17 37-37-5-41-55-6-163 101-163 161 0 9 12 25 26 36 31 25 84 27 142 7z"/><path d="m1478 3656c-504-12-919-24-922-27-8-7 699-1923 711-1926 8-2 1145 1935 1151 1963 2 8-2 13-10 13-7-1-426-11-930-23zm89-342c76-37 113-134 69-183-28-30-44-26-63 17-26 56-53 82-85 82-41 0-64-15-98-62-39-53-39-72-2-65 32 6 98-20 124-49s48-89 48-128c0-88-86-225-160-256-18-7-54-11-85-8-71 6-119 48-141 124-17 60-12 90 36 230 53 150 112 232 205 285 57 33 101 36 152 13z"/><path d="m1301 2985c-45-59-47-191-1-215 56-30 119 3 144 77 22 65 20 97-10 132-21 26-33 31-69 31-35 0-48-5-64-25z"/><path d="m2702 3665c6-27 1143-1964 1152-1962 4 2 167 433 361 960 195 526 356 960 359 965 2 4-397 16-887 25-491 10-914 19-940 22-38 3-48 1-45-10zm1179-281c94-48 184-188 215-334 26-124 8-210-56-263-121-102-283 30-375 308-33 99-33 206 1 252 46 63 136 78 215 37zm-324-448 140-313-44-22-44-21-28 62c-90 198-163 354-170 361-5 5-29-2-54-14-50-24-73-21-87 13-7 19-3 28 25 55 44 42 55 64 55 110 0 40 28 83 54 83 7 0 74-138 153-314z"/><path d="m3749 3283c-8-21-6-50 7-117 38-196 158-351 225-290 57 52-19 306-120 397-52 47-96 51-112 10z"/><path d="m1969 2597-587-1002 589-3c324-1 854-1 1178 0l589 3-587 1002c-322 552-588 1003-591 1003s-269-451-591-1003zm396-6c71-31 135-122 135-192 0-8-7-37-16-63-21-60-90-131-171-174-78-41-123-78-123-102s66-33 203-28l97 3v-41c0-23-6-46-13-52-8-7-96-10-241-10h-228l7 36c17 91 68 158 175 232 102 69 155 124 169 176 20 72-30 134-109 134-45 0-65-15-100-78-45-80-143-85-124-5 37 155 190 229 339 164zm548 7c91-27 156-130 179-280 26-170-55-338-188-394-70-29-164 3-228 77-94 110-112 318-40 460 64 127 157 173 277 137z"/><path d="m2792 2485c-18-15-34-43-43-72-18-63-18-247-1-296 20-56 59-97 92-97 74 0 112 85 112 254 0 84-4 111-22 154-36 84-83 103-138 57z"/><path d="m521 2393-1-873 43 6c23 2 161 16 306 29s266 27 269 30c4 4-564 1557-603 1650-11 25-14-122-14-842zm94 235c3-13 4-151 3-308-3-258-4-283-18-260-12 20-15 66-15 230 0 197-1 206-23 235-12 17-25 47-28 67-6 34-5 36 16 31 15-4 26-1 32 11 13 23 27 20 33-6zm167-215c36-41 90-194 75-210-10-10-27 8-27 30-1 12-11 41-23 65-23 43-23 43-41 23-11-12-21-42-24-72-4-47-3-51 15-45 16 5 25-3 45-41 49-90 71-184 66-284-5-103-15-120-53-95-83 54-140 354-104 552 15 85 18 94 38 94 10 0 25-8 33-17z"/><path d="m749 2108c-16-30-6-137 17-185 12-24 27-39 42-41 21-3 22 0 22 60 0 71-14 131-39 165-20 28-27 28-42 1z"/><path d="m4286 2427c-170-460-307-840-304-842 5-6 611-64 616-60 1 1 1 393 0 871l-3 868zm280 218c15-23 16-49 11-213-6-192-16-254-58-352-11-26-31-58-44-70l-23-22-17 26c-16 24-16 30-3 63 10 29 19 38 38 38 34 0 70 68 77 145 5 51 3 60-11 60-10 0-19-11-22-30-7-31-45-80-63-80s-32 38-37 103c-7 70 11 161 51 258 40 100 70 121 101 74zm-243-822c-18-26-18-22-21 177l-2 204-32-35c-27-28-33-31-36-16-2 10 7 39 21 65 13 26 32 73 41 105 39 136 41 130 44-181 2-265 1-295-15-319z"/><path d="m4479 2533c-14-35-24-153-15-187 4-17 11-23 21-19 22 8 41 49 55 118 14 71 2 115-30 115-13 0-24-10-31-27z"/><path d="m1085 1425c-66-7-184-18-263-25-78-7-141-17-140-21 4-11 626-409 639-409 9 0-36 60-123 163-22 26-64 62-94 78-65 37-76 51-33 42 23-4 30-3 25 5-4 7-4 12 1 12 29 0 86-59 202-207l132-170 325-208c179-114 327-205 330-202 6 6-865 958-874 956-4-1-61-7-127-14zm425-379c0 19 7 18 41-7 32-22 293-328 286-335-11-11-94 66-166 155-84 104-123 139-178 160-18 7-38 20-45 28-10 13-7 13 25-1 32-13 37-13 37 0z"/><path d="m1432 1431c5-15 1120-1231 1128-1231s1123 1216 1128 1231c2 5-427 9-1128 9s-1130-4-1128-9zm918-386v-215h-60-59l-3 153-3 152-71-3c-53-3-73 0-83 11-18 22 22 47 76 47 32 0 48 6 61 21 22 28 69 48 110 49h32zm668 179c5-38-18-45-157-45-119 0-134-2-152-20-11-11-19-28-17-37 3-14 14-16 74-14 148 7 274-59 274-143 0-30-7-45-37-75-31-29-54-41-122-59-126-34-241-14-296 51-32 38-19 58 36 58 29 0 46-7 69-30 26-26 38-30 84-30 94 0 136 26 136 82 0 68-71 97-175 73-146-33-165-21-140 92 30 137 5 124 227 121 187-3 193-4 196-24z"/><path d="m3692 1212c-114-125-211-233-216-239-15-25 10-12 84 43 41 31 86 64 100 73 28 18 40 34-116-155-82-99-174-195-174-181 0 4 34 51 75 105s75 101 75 105-20-3-45-15c-33-16-97-79-245-241-111-120-199-221-196-224 9-9 746 468 763 494 27 41 4 40-80-6l-82-43 30 32c72 78 400 340 426 340 4 0-23-39-61-87-69-85-87-118-52-93 15 11-18-19-71-66-10-9-16-18-13-21 6-7 546 338 546 349 0 4-10 8-22 8-24 0-435 37-485 44-31 4-41-5-241-222z"/></g></svg>