<svg height="512pt" preserveAspectRatio="xMidYMid meet" viewBox="0 0 512 512" width="512pt" xmlns="http://www.w3.org/2000/svg"><g transform="matrix(.1 0 0 -.1 0 512)"><path d="m2290 4796c-96-62-487-312-868-555-381-244-692-444-690-445 3-2 689 12 1436 29l312 7v539c0 297-3 539-7 539-5-1-87-52-183-114zm-140-461c86-78-112-247-290-248-55-1-73 4-121 31-63 36-108 42-110 15-1-10-1-37 0-60 3-53-12-81-54-99-65-27-65-26-65 102v115l38 16c22 10 66 16 112 16 62 1 86-4 134-27 79-38 148-38 210-2 83 49 67 103-26 91-52-7-61 3-35 39 28 38 169 46 207 11z"/><path d="m2640 4371v-541l118-1c64 0 457-8 872-18 415-9 756-16 758-16 4 3-1712 1103-1735 1112-10 4-13-107-13-536zm443-15c25-8 69-28 96-45 42-26 60-30 113-30 113 1 220-52 278-136 38-56 38-99-2-128-24-18-32-19-85-8-61 12-108 39-108 62 0 9 19 17 58 23 45 6 57 12 57 26 0 40-112 100-154 84-9-4-21-15-27-25-19-36-58-23-113 35-52 55-113 84-150 70s2-75 67-102c32-14 34-27 8-42-30-16-44-13-95 22-62 40-98 95-94 140 2 26 10 36 38 50 42 22 54 22 113 4z"/><path d="m1366 3649c-439-10-801-21-804-23-4-5 679-1868 698-1905 6-11 11-9 23 10 8 13 267 455 575 982l560 957-126-1c-70-1-487-10-926-20zm204-331c86-44 118-141 65-194-14-14-31-24-38-21-7 2-22 24-34 49-23 49-56 78-87 78-22 0-106-83-106-105 0-10 11-15 35-15 102 0 180-114 155-225-16-71-34-109-76-155-105-116-245-105-305 25-27 58-23 112 16 233 62 193 137 291 260 339 44 17 66 15 115-9z"/><path d="m1323 2995c-55-39-70-179-22-218 25-20 69-18 96 5 27 22 53 87 53 132 0 37-5 48-31 70-35 29-65 33-96 11z"/><path d="m2707 3658c6-7 261-443 568-968s563-961 570-968c10-11 14-9 22 15 6 15 164 446 353 956 188 510 340 930 338 933-4 4-1634 44-1807 44-41 0-51-3-44-12zm1190-278c123-70 213-252 213-425-1-109-33-166-115-200-53-23-111-6-175 52-83 75-190 315-190 427 0 55 21 109 55 143 30 30 38 33 97 33 52 0 72-6 115-30zm-335-440c76-168 138-310 138-316 0-9-72-44-91-44-3 0-48 91-99 203-51 111-97 206-101 211-5 6-29 0-60-14l-51-24-19 23c-28 34-23 56 18 90 31 26 37 38 44 86 8 63 32 97 63 93 16-2 48-65 158-308z"/><path d="m3768 3299c-23-13-23-65-2-155 27-119 96-239 153-269 37-19 56-12 71 26 18 43 5 117-40 221-39 92-82 148-132 174-32 16-28 16-50 3z"/><path d="m1978 2601c-318-543-578-993-578-1000 0-8 295-11 1160-11 864 0 1160 3 1160 11 0 14-1152 1988-1160 1988-3 0-265-444-582-988zm694 112c50-28 78-92 78-179 0-76-18-116-61-129-18-6-17-8 13-29 42-28 57-71 57-171 1-103-11-150-45-186-73-76-271-79-349-5-40 38-55 88-55 186 0 96 13 143 50 173 22 19 26 26 15 31-33 12-55 69-55 139 0 105 36 158 128 188 46 15 187 4 224-18z"/><path d="m2512 2308c-18-18-16-199 2-224 12-15 18-17 33-8s18 27 21 108c3 96-7 136-31 136-7 0-18-5-25-12z"/><path d="m521 2954c-1-307 1-324 37-324 8 0 21 8 28 18 30 41 34 0 32-314-3-303-3-308-20-272-15 32-18 67-18 231 0 174-2 197-19 218-10 13-23 38-29 54-8 22-11-111-11-502l-1-533h23c12 0 139 11 282 25s270 25 283 25c12 0 22 6 22 14 0 10-528 1451-603 1646-3 8-6-120-6-286zm266-536c11-13 27-36 35-53 19-39 52-174 44-182-9-9-34 16-41 40-4 12-14 41-22 65-15 40-17 42-34 26-13-12-19-31-19-61 0-23 3-42 8-42 22 4 32-7 61-71 49-105 68-212 54-296-13-75-26-89-60-67-67 44-116 214-116 408-1 212 32 296 90 233z"/><path d="m4292 2426c-166-452-302-826-302-832 0-10 597-71 606-61 2 2 3 389 2 859l-3 855zm282 212c10-26 12-76 6-228-9-207-23-278-72-364-31-54-55-67-74-42-18 26-18 60 2 97 11 22 20 28 33 24 25-8 48 30 68 111 12 48 13 68 5 76s-13 6-17-8c-13-41-37-80-57-93-37-23-51 6-56 113-5 100 15 191 60 281 29 56 37 65 65 65 18 0 27-8 37-32zm-251-825c-18-27-18-23-23 176l-5 203-22-26c-13-14-27-26-33-26-18 0-11 47 14 97 13 26 31 75 41 108 37 131 40 117 43-203 2-275 1-305-15-329z"/><path d="m927 1406c-125-13-229-25-232-27-3-3 521-344 603-393 25-15-108 153-147 185-19 16-49 35-66 43-34 16-75 56-57 56 6 0 22-4 36-10 19-7 25-6 28 6s9 11 38-4c23-12 83-80 171-192l137-173 312-199c171-110 313-198 314-196 2 1-187 210-419 463-391 426-425 460-456 461-19 1-136-8-262-20zm554-356c13-7 19-7 19 0 0 15 32 12 58-6 27-19 304-346 297-352-12-12-95 51-143 108-132 159-154 181-212 210-32 16-61 34-65 40-8 13 21 13 46 0z"/><path d="m1476 1388c209-234 1079-1178 1084-1178s875 944 1084 1178l38 42h-1122-1122zm884-343v-215h-65-65v150 151l-75-3c-82-3-108 9-89 40 8 11 30 19 69 23 41 5 63 13 74 27 25 30 52 41 104 42h47zm486 205h174v-29c0-48-16-52-160-49-120 2-133 1-146-17-8-10-14-27-14-38 0-16 4-17 33-10 76 19 206-4 262-48 38-30 58-76 51-114-25-129-357-184-460-76-42 44-32 65 31 69 43 3 55-1 79-23 38-35 68-41 133-24 45 11 59 20 70 43 20 42-1 76-56 96-38 13-51 12-132-4-86-18-92-18-117-2-14 10-24 23-21 29 4 10 19 81 33 154 5 29 33 55 51 49 8-3 93-6 189-6z"/><path d="m3697 1208c-112-123-203-225-201-227s40 24 84 58c114 88 143 95 74 16-19-22-70-83-113-135-84-102-173-190-192-190-8 0-8 4-2 13 6 6 41 53 80 102 89 115 90 116 45 94-33-17-425-428-416-438 5-5 696 438 723 465 43 41 13 39-68-4-43-23-82-42-87-42-30 0 354 326 440 373 27 15 50 26 52 24 2-1-28-42-67-89-66-83-81-107-59-93 6 3 10 2 10-4 0-9-31-37-80-74-52-38 66 33 283 172 125 80 224 147 222 150-5 4-455 50-501 51-16 0-80-63-227-222z"/></g></svg>