<svg height="512pt" preserveAspectRatio="xMidYMid meet" viewBox="0 0 512 512" width="512pt" xmlns="http://www.w3.org/2000/svg"><g transform="matrix(.1 0 0 -.1 0 512)"><path d="m1404 2558-1151-1993 1154-3c634-1 1672-1 2306 0l1154 3-1151 1993c-633 1095-1153 1992-1156 1992s-524-897-1156-1992zm1266 807v-315h65 65v-65-65h-65-65v-115-115h-75-75v115 115h-200-200v66 65l211 315 211 314h64 64zm934-1819c73-56 104-129 126-301 13-105 38-163 79-188 64-38 136-6 148 65 5 34 2 42-34 77l-40 40 29 51c17 27 35 50 42 50 20 0 97-80 112-116 47-112-38-274-163-310-48-14-58-14-108 1-67 19-122 65-147 123-11 24-26 97-34 165-15 133-21 160-34 152-4-3-36-53-69-113-33-59-65-113-69-120-7-10-19-7-55 14-26 14-47 30-47 36 0 14 220 398 227 398 3 0 20-11 37-24zm-1939-154c16-28 26-54 24-56s-91-52-196-111c-106-59-195-111-199-116-3-5 11-38 30-73 20-35 36-66 36-69 0-2-19-12-42-23-35-16-42-16-46-4-3 8-22 32-43 54-35 39-41 41-93 40h-55l-25 46-25 45 297 166c163 92 300 164 303 160 3-3 19-30 34-59z"/><path d="m2410 3253c-52-80-103-159-113-174l-19-29h121 121v169c0 94-4 172-8 175-4 2-50-61-102-141z"/></g></svg>