<svg height="512pt" preserveAspectRatio="xMidYMid meet" viewBox="0 0 512 512" width="512pt" xmlns="http://www.w3.org/2000/svg"><g transform="matrix(.1 0 0 -.1 0 512)"><path d="m2469 4667c-42-10-239-119-840-466-479-277-797-466-816-487-38-39-42-74-14-119 14-23 203-137 817-492 505-292 816-466 844-472 67-16 159-13 215 7 71 25 1594 907 1628 943 35 38 37 92 4 131-22 28-1565 925-1626 946-52 18-151 23-212 9zm711-1157c12-6 50 12 141 66 68 40 127 74 132 74 10 0 207-124 207-130 0-4-696-426-754-456-18-10-35-2-128 55l-106 67 124 74c68 41 124 78 124 81 0 8-816 519-828 519-4 0-53-42-108-94l-101-95-105 65-104 65 100 98c81 79 128 115 234 179l134 80 511-320c281-176 519-323 527-328z"/><path d="m4298 3367c-125-60-1506-866-1539-898-49-49-85-111-103-184-14-51-16-168-16-860 0-524 4-813 11-838 5-20 20-46 31-57 26-24 86-27 127-5 155 80 1515 875 1543 902 51 49 94 136 108 213 7 45 10 308 8 850l-3 785-23 46c-20 42-54 69-85 69-7 0-33-10-59-23zm-390-684c15-10 38-41 52-69 21-41 24-63 24-139 0-165-55-290-318-730-85-143-153-261-151-264 3-2 109 59 236 135 128 76 236 141 240 142 5 2 9-50 9-115l-1-118-397-237-397-238-3 115-3 116 214 357c118 196 226 380 240 407 41 82 60 160 55 231-5 81-31 114-92 114-92 0-208-92-373-295l-32-40v135l-1 135 93 83c280 250 501 351 605 275z"/><path d="m695 3358c-14-13-30-41-35-63-14-59-13-1586 1-1661 13-73 58-160 107-207 20-19 381-234 801-476 670-386 770-441 806-441 50 0 80 24 94 77 7 25 11 314 11 838 0 692-2 809-16 860-18 73-54 136-103 182-20 20-378 233-796 474-674 389-764 439-802 439-29 0-50-7-68-22zm557-594c320-115 581-357 627-582 24-115 7-217-42-258-27-23-38-26-84-22-29 3-53 3-53 0 0-2 24-31 54-63 60-66 119-175 141-259 17-64 19-199 5-252-26-93-106-131-215-103-146 38-330 151-497 305l-68 62v118 118l103-102c187-187 349-262 407-188 19 23 21 36 18 93-9 121-92 226-258 326l-80 48v102 103l74-46c141-85 205-93 233-27 31 74-11 189-98 267-80 72-243 146-321 146h-28v120c0 66 2 120 4 120 3 0 38-12 78-26z"/></g></svg>