<svg height="512pt" preserveAspectRatio="xMidYMid meet" viewBox="0 0 512 512" width="512pt" xmlns="http://www.w3.org/2000/svg"><g transform="matrix(.1 0 0 -.1 0 512)"><path d="m2469 4667c-42-10-239-118-840-466-480-277-797-466-816-487-38-39-42-74-14-119 14-23 203-137 817-492 505-292 816-466 844-472 67-16 159-13 215 7 71 25 1594 907 1628 943 35 38 37 92 4 131-22 27-1565 925-1626 946-52 18-151 23-212 9zm95-507c114-29 225-91 291-161 80-87 87-116 94-396l6-233 243 146 243 146 109-69c61-37 110-70 110-73s-175-110-390-239l-390-234-113 71-114 71-6 188c-4 103-7 229-7 278 0 107-18 153-75 204-104 91-283 113-407 50-78-40-150-122-184-210-9-24-20-48-25-53-8-9-259 143-259 156 0 5 37 46 83 92 87 87 215 179 313 222 145 64 333 81 478 44z"/><path d="m4298 3367c-125-60-1506-866-1539-898-49-49-85-111-103-184-14-51-16-168-16-860 0-524 4-813 11-838 5-20 20-46 31-57 26-24 86-27 127-5 155 80 1515 875 1543 902 51 49 94 136 108 213 7 45 10 308 8 850l-3 785-23 46c-20 42-54 69-85 69-7 0-33-10-59-23zm-388-675c35-26 51-64 57-133 12-123-35-254-131-371l-55-66 58 1c109 3 150-55 151-208 0-131-34-237-114-357-39-59-156-178-230-234-118-89-299-179-418-208l-28-6v123 124l58 6c179 19 372 140 443 279 13 26 24 68 27 108 3 56 1 69-18 93-39 49-114 35-250-48-32-19-60-35-64-35-3 0-6 44-6 98v97l81 49c148 91 216 170 234 273 9 57-9 111-42 124-63 24-201-53-341-189l-72-69v113 114l86 72c152 129 338 242 440 267 51 13 102 6 134-17z"/><path d="m690 3352c-21-22-30-42-35-83-3-30-5-414-3-855l3-800 37-75c20-40 54-90 75-111 22-20 369-227 802-477 670-386 770-441 806-441 50 0 80 24 94 77 7 25 11 314 11 838 0 692-2 809-16 860-18 73-54 136-103 183-20 19-378 232-796 473-683 395-764 439-803 439-34 0-49-6-72-28zm828-718 142-85v-559-559l130-78 130-78v-113c0-62-3-111-7-109-5 2-182 108-395 236l-388 232v114 114l124-74c68-41 127-75 130-75s6 200 6 444v443l-135 48-135 47v113 114l128-45c93-33 165-67 270-130z"/></g></svg>