<svg height="512pt" preserveAspectRatio="xMidYMid meet" viewBox="0 0 512 512" width="512pt" xmlns="http://www.w3.org/2000/svg"><g transform="matrix(.1 0 0 -.1 0 512)"><path d="m2469 4667c-42-10-239-118-840-466-480-277-797-466-816-487-38-39-42-74-14-119 14-23 203-137 817-492 505-292 816-466 844-472 67-16 159-13 215 7 71 25 1594 907 1628 943 35 38 37 92 4 131-22 27-1565 925-1626 946-52 18-151 23-212 9zm46-492c144-37 286-140 300-218 6-30 2-48-19-88-14-28-26-52-26-53 0-2 24 4 53 12s96 14 152 15c115 0 217-29 316-89 259-157 220-333-116-527-81-47-272-125-330-134-25-4-50 7-140 63l-109 69 35 8c237 60 351 109 417 182 74 79 54 148-55 202-47 22-70 27-128 27-93 0-161-22-270-86l-90-54-96 60-96 60 78 48c165 102 188 165 89 237-120 87-316 47-455-93-33-34-69-73-80-89l-20-27-107 67-107 67 20 28c11 15 52 54 90 85 230 191 497 278 694 228z"/><path d="m4315 3376c-16-7-302-170-635-363-333-192-668-385-744-429-148-84-198-125-239-195-57-97-57-92-57-964 0-524 4-813 11-838 14-53 44-77 94-77 36 0 136 54 806 441 425 245 780 456 801 476 51 49 94 136 108 213 7 45 10 308 8 850l-3 785-23 46c-20 42-55 70-85 69-7-1-25-7-42-14zm-573-1220 3-554 123 74c68 41 125 74 127 74 3 0 5-51 5-112l-1-113-384-230c-212-126-390-232-395-233-7-3-10 35-8 109l3 113 127 76 127 75 1 443c0 243-4 442-8 442s-60-45-124-99-121-102-127-106c-8-4-11 27-11 103v108l135 115c81 67 187 145 263 191 70 43 130 77 134 78 4 0 9-249 10-554z"/><path d="m690 3352c-21-22-30-42-35-83-3-30-5-414-3-855l3-800 37-75c20-40 54-90 75-111 22-20 369-227 802-477 670-386 770-441 806-441 50 0 80 24 94 77 7 25 11 314 11 838 0 692-2 809-16 860-18 73-54 136-103 182-20 20-378 233-796 474-684 395-764 439-803 439-34 0-49-6-72-28zm565-594c217-70 419-216 530-383 119-179 154-375 91-511-31-68-89-108-281-199-86-40-156-77-157-82-1-4 107-73 240-153l242-145v-118-119l-49 29c-26 15-206 123-399 238l-351 210-1 121v121l221 103c282 133 300 152 286 300-18 205-225 366-444 348l-53-5v139 140l32-8c18-3 60-15 93-26z"/></g></svg>