<svg height="512pt" preserveAspectRatio="xMidYMid meet" viewBox="0 0 512 512" width="512pt" xmlns="http://www.w3.org/2000/svg"><g transform="matrix(.1 0 0 -.1 0 512)"><path d="m2469 4667c-42-10-239-119-840-466-479-277-797-466-816-487-38-39-42-74-14-119 14-23 203-137 817-492 505-292 816-466 844-472 67-16 159-13 215 7 71 25 1594 907 1628 943 35 38 37 92 4 131-22 28-1565 925-1626 946-52 18-151 23-212 9zm199-691c217-135 398-246 403-246s37 18 72 39l64 39 113-71c84-52 110-73 99-80-8-4-38-23-68-41l-53-33 116-73 117-73-106-63c-59-35-111-64-117-64s-56 28-112 63c-55 35-106 66-112 70-6 3-107-52-224-122l-213-128-139 87-139 87-185 346c-101 190-184 349-184 354 1 11 253 162 265 158 6-1 187-113 403-249z"/><path d="m2355 3808c162-308 203-383 211-381 20 4 273 159 271 165-2 9-528 338-539 338-4 0 21-55 57-122z"/><path d="m4315 3376c-16-7-302-170-635-363-333-192-668-385-744-429-148-84-198-125-239-195-57-97-57-92-57-964 0-524 4-813 11-838 5-20 20-46 31-57 26-24 86-27 127-5 155 80 1515 875 1543 902 51 49 94 136 108 213 7 45 10 308 8 850l-3 785-23 46c-20 42-55 70-85 69-7-1-25-7-42-14zm-395-673-1-118-227-135-227-136-3-112-3-113 58 47c68 56 198 120 260 130 94 14 168-37 198-138 22-74 20-236-4-330-37-145-130-298-245-406-140-130-310-220-473-250l-53-9v127 127l88 5c162 10 279 73 374 202 79 108 90 317 20 355-75 40-190-18-354-178l-78-76v365l1 365 327 197c180 108 330 197 335 197 4 1 7-52 7-116z"/><path d="m690 3352c-21-22-30-42-35-83-3-30-5-414-3-855l3-800 37-75c20-40 54-90 75-111 22-20 369-227 802-477 670-386 770-441 806-441 50 0 80 24 94 77 7 25 11 314 11 838 0 692-2 809-16 860-18 73-54 136-103 183-20 19-378 232-796 473-683 395-764 439-803 439-34 0-49-6-72-28zm802-713c76-30 205-117 287-194l71-67v-108-108l-87 87c-102 101-188 151-261 151-37 0-50-6-77-33-32-32-47-69-60-152l-6-40h68c77-1 112-16 210-90 114-85 213-244 254-405 17-66 20-105 18-195-4-100-7-117-34-170-58-113-148-131-293-60-227 112-385 358-437 678-19 119-19 362 0 461 15 80 52 165 88 204 59 63 161 80 259 41z"/><path d="m1427 1952c-40-44-46-205-13-315 40-134 183-227 232-151 36 55 33 253-6 341-49 111-164 179-213 125z"/></g></svg>