<svg height="512pt" preserveAspectRatio="xMidYMid meet" viewBox="0 0 512 512" width="512pt" xmlns="http://www.w3.org/2000/svg"><g transform="matrix(.1 0 0 -.1 0 512)"><path d="m2469 4667c-42-10-239-119-840-466-479-277-797-466-816-487-38-39-42-74-14-119 14-23 203-137 817-492 505-292 816-466 844-472 67-16 159-13 215 7 71 25 1594 907 1628 943 35 38 37 92 4 131-22 28-1565 925-1626 946-52 18-151 23-212 9zm63-552c-9-7-113-69-230-139-189-114-211-129-195-141 10-7 55-35 101-64l83-52 47 42c64 57 208 124 312 145 105 21 253 15 360-16 158-45 336-160 395-254 25-41 30-60 30-111s-5-70-30-111c-67-107-269-226-486-285l-117-32-120 74-121 75 107 17c273 44 438 152 402 262-16 49-64 93-140 129-61 29-72 31-180 31-106 0-120-2-172-28-68-33-157-112-202-177l-31-47-346 216-345 216 334 201 335 201 113-71c95-60 110-72 96-81z"/><path d="m4315 3376c-16-7-302-170-635-363-333-192-668-385-744-429-148-84-198-125-239-195-57-97-57-92-57-964 0-524 4-813 11-838 5-20 20-46 31-57 26-24 86-27 127-5 155 80 1515 875 1543 902 51 49 94 136 108 213 7 45 10 308 8 850l-3 785-23 46c-20 42-55 70-85 69-7-1-25-7-42-14zm-385-710v-115l-47-6c-209-28-369-181-417-396-20-92-29-159-19-158 4 0 28 27 52 60 53 74 124 132 211 172 116 55 200 33 252-66 33-63 38-244 9-358-64-252-251-478-457-550-93-33-155-20-211 44-71 81-97 216-90 467 4 153 8 190 35 292 94 361 306 607 612 709 30 10 58 18 63 18 4 1 7-50 7-113z"/><path d="m3625 1974c-78-40-128-121-146-236-13-82-5-187 16-228 40-77 166-18 223 104 26 55 40 172 31 264-9 98-54 133-124 96z"/><path d="m695 3358c-14-13-30-41-35-63-14-59-13-1586 1-1661 13-73 58-160 107-207 20-19 381-234 801-476 670-386 770-441 806-441 50 0 80 24 94 77 7 25 11 314 11 838 0 692-2 809-16 860-18 73-54 136-103 183-20 19-378 232-796 473-673 389-765 439-802 439-29 0-50-7-68-22zm1085-1310 5-432 68-40 67-41v-117c0-65-2-118-4-118-3 0-31 16-63 35s-61 35-65 35c-5 0-8-54-8-120v-119l-112 67-113 68-3 126-3 126-214 128-215 129v140 140l195 292 195 292 132-79 133-80z"/><path d="m1406 2135c-76-113-137-207-135-209s65-40 139-85l135-81 3 145c1 80 1 211 0 291l-3 145z"/></g></svg>