<svg height="512pt" preserveAspectRatio="xMidYMid meet" viewBox="0 0 512 512" width="512pt" xmlns="http://www.w3.org/2000/svg"><g transform="matrix(.1 0 0 -.1 0 512)"><path d="m2469 4667c-42-10-239-118-840-466-480-277-797-466-816-487-38-39-42-74-14-119 14-23 203-137 817-492 505-292 816-466 844-472 67-16 159-13 215 7 71 25 1594 907 1628 943 35 38 37 92 4 131-22 27-1565 925-1626 946-52 18-151 23-212 9zm19-490c96-60 112-77 71-77-39 0-198-53-248-83-29-18-65-47-79-65-52-69-22-168 77-251 55-46 71-51 71-21 0 54 76 136 164 176 84 38 163 54 272 54 127 0 228-24 349-84 211-105 313-241 275-369-25-88-169-192-321-234-98-27-276-23-400 10-333 87-698 327-788 517-70 147-25 260 143 364 82 51 249 120 301 125 6 1 56-28 113-62z"/><path d="m2673 3695c-90-45-93-111-9-179 143-116 301-163 404-121 122 52 107 137-41 233-141 91-260 113-354 67z"/><path d="m4315 3376c-16-7-302-170-635-363-333-192-668-385-744-429-148-84-198-125-239-195-57-97-57-92-57-964 0-524 4-813 11-838 14-53 44-77 94-77 36 0 136 54 806 441 425 245 780 456 801 476 51 49 94 136 108 213 7 45 10 308 8 850l-3 785-23 46c-20 42-55 70-85 69-7-1-25-7-42-14zm-390-1406c36 22 68 40 70 40 3 0 5-53 5-118v-117l-67-41-68-40-5-127-5-127-108-65c-60-36-110-65-112-65-3 0-6 54-7 120l-3 120-208-125c-115-69-210-125-213-125-2 0-4 61-4 135v136l191 517c105 284 195 523 198 530 4 7 65 48 137 90l129 78 3-428 2-428z"/><path d="m3486 2004c-75-202-135-368-133-371 3-2 66 33 141 78l136 82v288c0 159-2 289-4 289s-65-165-140-366z"/><path d="m690 3352c-21-22-30-42-35-83-3-30-5-414-3-855l3-800 37-75c20-40 54-90 75-111 22-20 369-227 802-477 670-386 770-441 806-441 50 0 80 24 94 77 7 25 11 314 11 838 0 692-2 809-16 860-18 73-54 136-103 183-20 19-378 232-796 473-683 395-764 439-803 439-34 0-49-6-72-28zm840-724 305-184 3-118c2-93 0-117-10-113-7 2-111 64-231 136l-218 131 3-111 3-111 47-18c123-46 288-194 368-329 71-119 102-225 108-367 6-146-11-219-62-270-69-69-162-65-314 12-106 53-197 121-319 238l-93 88v127l1 126 31-40c17-22 77-85 132-140 174-174 302-212 352-107 13 28 15 53 11 115-14 210-183 369-439 412l-38 6v365 365l28-15c15-8 164-98 332-198z"/></g></svg>