<svg height="512pt" preserveAspectRatio="xMidYMid meet" viewBox="0 0 512 512" width="512pt" xmlns="http://www.w3.org/2000/svg"><g transform="matrix(.1 0 0 -.1 0 512)"><path d="m1912 4394c12-11 2691-1564 2694-1561 2 2-251 355-562 785l-566 782h-786c-432 0-783-3-780-6zm1285-342c27-10 79-39 118-65 69-47 70-47 35-47-19 1-60 14-90 30-92 50-128 35-73-31 44-52 193-113 193-79 0 6 17 10 38 10 33 0 50-12 166-118l129-117-108-3-107-3-44 41-44 40h83l82 1-44 39c-34 32-47 38-58 29-19-16-95-4-157 24-74 34-242 164-256 197-27 66 36 90 137 52z"/><path d="m1680 2560v-1781l58 33c292 166 3002 1744 3002 1748s-2704 1579-3002 1748l-58 33zm1070 170v-250h30 30v-65-65h-30-30v-65-65h-95-95v65 65h-115-115v57c0 43 18 112 76 292 42 129 80 246 85 258 8 22 13 23 134 23h125z"/><path d="m913 3392-602-832 602-833 602-832 3 832c1 458 1 1207 0 1665l-3 832zm377-827v-275h-23c-18 0-28 11-46 48-38 77-100 150-168 194l-63 42v78 78l28-17c66-41 113-88 166-164l56-83v187 187h25 25z"/><path d="m3265 1515c-731-425-1337-778-1345-784-10-7 236-10 772-10l786-1 34 48c19 26 271 373 559 772 568 785 544 750 532 749-4 0-606-349-1338-774zm434-12c0-5-119-106-265-226-243-199-268-218-299-215-33 3-30 6 141 148l175 145-38 5-37 5 31 26c19 16 54 31 90 38s77 24 108 46c46 31 96 46 94 28z"/></g></svg>