<svg height="512pt" preserveAspectRatio="xMidYMid meet" viewBox="0 0 512 512" width="512pt" xmlns="http://www.w3.org/2000/svg"><g transform="matrix(.1 0 0 -.1 0 512)"><path d="m1668 3213-887-1528 889-3c490-1 1290-1 1780 0l889 3-887 1528c-488 840-889 1527-892 1527s-404-687-892-1527zm1082 152v-55h-115-115v-59-59l37 19c78 40 173 15 208-56 18-35 20-60 20-205 0-148-2-169-21-205-52-100-242-128-355-52-47 31-68 80-76 176l-6 81h97 96l1-62c2-89 11-122 33-126 38-8 46 23 46 169 0 155-8 192-43 187-15-2-25-13-32-35l-9-33h-95-94l6 83c4 45 7 128 7 185v102h205 205z"/><path d="m1502 4044-782-566v-786c0-432 3-783 6-780 11 12 1564 2691 1561 2694-2 2-355-251-785-562zm-52-590-40-44v83l-1 82-39-44c-32-34-38-47-29-58 16-19 4-95-24-157-34-74-164-242-197-256-66-27-90 36-52 137 10 27 39 79 65 118 47 69 47 70 47 35-1-19-14-60-30-90-50-92-35-128 31-73 52 44 113 193 79 193-5 0-10 17-10 38 0 33 12 50 118 166l117 129 3-108 3-107z"/><path d="m2830 4607c0-6 1556-2687 1564-2695 3-3 6 348 6 780v786l-47 34c-27 19-374 271-773 559-751 544-750 543-750 536zm1013-1173c199-243 218-268 215-299-3-33-6-30-148 141l-145 175-5-38-5-37-26 31c-16 19-31 54-38 90s-25 79-46 110c-32 48-46 94-27 92 4 0 105-119 225-265z"/><path d="m910 1506c8-7 383-279 833-604l817-591 818 590c449 325 824 597 832 605 12 12-229 14-1650 14-1406 0-1662-2-1650-14zm1920-239c0-18-11-28-47-46-78-38-151-100-195-168l-42-63h-78-78l17 28c41 66 88 113 164 166l83 56h-187-187v25 25h275 275z"/></g></svg>