<svg height="512pt" preserveAspectRatio="xMidYMid meet" viewBox="0 0 512 512" width="512pt" xmlns="http://www.w3.org/2000/svg"><g transform="matrix(.1 0 0 -.1 0 512)"><path d="m1159 3733c-266-368-520-719-566-782-45-63-81-116-79-118 3-3 2681 1549 2694 1561 3 3-348 6-780 6h-786zm844 309c-12-9-92-75-178-147l-156-130 37-5 38-5-31-26c-19-16-54-31-90-38s-79-25-110-46c-48-32-94-46-92-27 0 4 118 105 262 224 243 201 265 216 302 217 40 1 40 0 18-17z"/><path d="m1907 3452c-840-488-1527-889-1527-892s687-404 1528-892l1527-887 3 889c1 490 1 1290 0 1780l-3 889zm703-423c52-28 78-68 86-132l7-47h-97-96v38c0 42-14 62-42 62-26 0-38-39-38-125v-74l38 25c78 54 199 11 223-78 6-25 9-94 7-168-4-147-17-180-89-220-38-22-57-25-134-25-104 0-150 17-191 71-36 47-47 137-42 364 3 172 6 200 24 234 39 76 110 108 225 103 57-3 86-10 119-28zm165-884c0-20-8-20-329-23-198-1-334 2-339 7s-7 17-4 25c6 15 44 16 339 14 325-3 333-3 333-23z"/><path d="m2443 2678c-12-19-16-208-6-248 11-40 40-52 60-24 16 22 18 236 3 265-12 21-45 25-57 7z"/><path d="m3600 2560c0-1406 2-1662 14-1650 7 8 279 383 604 833l591 817-590 818c-325 449-597 824-605 832-12 12-14-229-14-1650zm299 223c38-78 100-151 168-195l63-42v-78-78l-27 17c-67 41-114 88-167 164l-56 83v-187-187h-25-25v275 275h23c18 0 28-11 46-47z"/><path d="m517 2277c4-8 259-361 567-785l558-772h786c432 0 783 3 780 6-8 8-2689 1564-2695 1564-2 0 0-6 4-13zm1149-827 44-40h-83l-82-1 44-39c34-32 47-38 58-29 19 16 95 4 157-24 74-34 242-164 256-197 27-66-36-90-137-52-27 10-79 39-118 65-69 47-70 47-35 47 19-1 60-14 90-30 92-50 128-35 73 31-44 52-193 113-193 79 0-5-16-10-36-10-39 0-56 13-229 174l-70 65 109 1h109z"/></g></svg>