<svg height="512pt" preserveAspectRatio="xMidYMid meet" viewBox="0 0 512 512" width="512pt" xmlns="http://www.w3.org/2000/svg"><g transform="matrix(.1 0 0 -.1 0 512)"><path d="m1725 4207-830-602 833-3c457-1 1206-1 1664 0l832 3-829 600c-456 330-831 601-834 602s-379-269-836-600zm795-102v-75h-70-70v75 75h70 70zm180 0v-75h-70-70v75 75h70 70z"/><path d="m812 3382c166-292 1744-3002 1748-3002s1579 2704 1748 3002l33 58h-1781-1781zm1948-850c0-67-12-144-49-323-27-129-54-260-61-291l-11-58h-95c-52 0-94 2-94 5 0 7 129 574 136 598 5 15-4 17-95 17h-101v70 70h185 185z"/><path d="m720 2428v-786l668-483c367-266 718-520 781-566 63-45 116-81 118-79 3 3-1549 2681-1561 2694-3 3-6-348-6-780zm505-603 130-156 5 37 5 38 26-31c16-19 31-54 38-90s25-79 46-110c32-48 46-94 28-92-5 0-106 119-225 265-199 241-218 267-218 302 0 37 1 37 18 15 9-12 76-92 147-178z"/><path d="m3611 1864c-430-741-780-1348-778-1350s355 251 785 562l782 566v784c0 431-2 784-3 784-2 0-356-606-786-1346zm440 196c44-24 16-136-64-255-47-69-47-70-47-35 1 19 14 60 30 90 50 92 35 128-31 73-52-44-113-193-79-193 6 0 10-17 10-37 0-34-12-51-118-167l-117-129-3 108-3 107 41 44 40 44v-83l1-82 39 44c32 34 38 47 29 58-16 19-4 95 24 157 29 63 158 235 189 252 28 16 34 17 59 4z"/></g></svg>