<svg height="512pt" preserveAspectRatio="xMidYMid meet" viewBox="0 0 512 512" width="512pt" xmlns="http://www.w3.org/2000/svg"><g transform="matrix(.1 0 0 -.1 0 512)"><path d="m1664 3218-891-1533 894-3c491-1 1295-1 1786 0l893 3-888 1530c-488 842-892 1531-896 1533-5 1-409-687-898-1530zm1055-176c117-59 125-204 15-268-42-25-50-44-18-44 7 0 31-16 53-35 76-69 75-192-1-261-44-41-90-57-178-62-113-6-189 15-241 67-90 89-64 241 48 288 18 7 33 15 33 17s-20 16-44 30c-103 60-102 202 1 262 85 51 238 53 332 6z"/><path d="m2490 2950c-22-22-27-87-10-120 15-29 73-44 115-30s55 35 55 89c0 58-26 81-90 81-37 0-55-5-70-20z"/><path d="m2485 2666c-49-49-40-152 15-181 92-48 184 20 165 122-10 56-44 83-105 83-40 0-56-5-75-24z"/><path d="m1508 4057-788-571v-801c1-602 3-795 12-780 6 11 359 619 783 1350 845 1456 799 1375 788 1374-4 0-362-258-795-572zm-58-593-40-44v81c0 91-2 92-62 17-24-30-28-42-18-48 20-12 7-97-24-160-30-59-125-190-164-227-31-29-68-30-83-2-20 37 28 168 91 249 19 24 20 24 20 4 0-12-13-48-30-79-37-70-39-95-6-95 38 0 76 39 112 114 35 73 41 100 24 111-5 3-10 21-10 38 0 27 18 53 113 157l112 124 3-98 3-98z"/><path d="m2820 4609c7-13 360-622 785-1354 424-731 777-1339 783-1350 9-15 11 180 12 780v801l-787 569c-432 314-791 572-796 574s-3-7 3-20zm1024-1187c164-200 216-270 216-290v-27l-18 22c-9 12-75 92-147 178l-130 156-5-38-5-38-26 35c-14 19-30 61-37 93-7 35-23 75-42 100-16 22-30 50-30 61 0 10 2 17 4 15s101-122 220-267z"/><path d="m881 1523c1-14 1662-1208 1679-1208 18 0 1678 1194 1679 1208 1 4-755 7-1679 7s-1680-3-1679-7zm1939-260c0-12-23-30-66-52-78-40-149-108-184-174l-25-47h-73-73l18 31c33 57 90 114 167 164 41 28 76 53 76 58 0 4-83 7-185 7-158 0-185 2-185 15s36 15 265 15c246 0 265-1 265-17z"/></g></svg>